<svg width="1065" height="335" viewBox="0 0 1065 335" fill="none" xmlns="http://www.w3.org/2000/svg">
<path d="M93.4911 260.587C83.3421 270.82 69.1166 276.691 54.7235 276.658C30.8523 277.161 9.21216 260.084 2.2504 237.924C0.656769 232.858 0.00253296 227.54 0.00253296 222.239V196.164C2.18332 224.447 25.8197 246.708 54.6564 246.691C69.8044 246.691 83.4931 240.551 93.424 230.62L109.545 214.499L248.511 75.4995C258.66 65.2834 272.886 59.3953 287.279 59.4288C311.15 58.9256 332.79 76.0028 339.752 98.1797C341.346 103.246 342 108.564 342 113.865L342 139.939C339.819 111.656 316.183 89.3954 287.346 89.4122C272.198 89.4122 258.509 95.5519 248.579 105.483L93.4744 260.587H93.4911Z" fill="url(#paint0_linear_137_147)"/>
<path d="M248.509 280.012C258.658 290.245 272.883 296.116 287.277 296.083C311.148 296.586 332.788 279.509 339.75 257.349C341.343 252.283 341.997 246.965 341.997 241.664V215.589C339.817 243.872 316.18 266.133 287.344 266.116C272.196 266.116 258.507 259.977 248.576 250.046L232.455 233.924L93.4886 94.9246C83.3396 84.7084 69.1141 78.8203 54.7209 78.8539C30.8497 78.3506 9.20962 95.4278 2.24789 117.605C0.654236 122.671 0 127.989 0 133.29L0 159.364C2.18079 131.081 25.8171 108.82 54.6538 108.837C69.8019 108.837 83.4905 114.977 93.4215 124.908L248.526 280.012H248.509Z" fill="url(#paint1_linear_137_147)"/>
<path d="M248.509 318.596C258.658 328.829 272.883 334.7 287.277 334.667C311.148 335.17 332.788 318.093 339.75 295.933C341.343 290.866 341.997 285.549 341.997 280.248V254.173C339.817 282.456 316.18 304.717 287.344 304.7C272.196 304.7 258.507 298.56 248.576 288.629L232.455 272.508L93.4886 133.508C83.3396 123.292 69.1141 117.404 54.7209 117.438C30.8497 116.934 9.20962 134.012 2.24789 156.189C0.654236 161.255 0 166.572 0 171.873L0 197.948C2.18079 169.665 25.8171 147.404 54.6538 147.421C69.8019 147.421 83.4905 153.561 93.4215 163.492L248.526 318.596H248.509Z" fill="url(#paint2_linear_137_147)"/>
<path d="M248.509 201.169C258.658 211.402 272.883 217.273 287.277 217.24C311.148 217.743 332.788 200.666 339.75 178.506C341.343 173.44 341.997 168.122 341.997 162.821V136.746C339.817 165.029 316.18 187.29 287.344 187.273C272.196 187.273 258.507 181.133 248.576 171.203L232.455 155.081L93.4886 16.0816C83.3396 5.86541 69.1141 -0.022709 54.7209 0.0108416C30.8497 -0.492417 9.20962 16.5848 2.24789 38.7617C0.654236 43.8279 0 49.1456 0 54.4466L0 80.5213C2.18079 52.2382 25.8171 29.9774 54.6538 29.9942C69.8019 29.9942 83.4905 36.1339 93.4215 46.0649L248.526 201.169H248.509Z" fill="url(#paint3_linear_137_147)"/>
<path d="M248.509 241.43C258.658 251.663 272.883 257.534 287.277 257.501C311.148 258.004 332.788 240.927 339.75 218.766C341.343 213.7 341.997 208.383 341.997 203.082V177.007C339.817 205.29 316.18 227.551 287.344 227.534C272.196 227.534 258.507 221.394 248.576 211.463L232.455 195.342L93.4886 56.3423C83.3396 46.1262 69.1141 40.238 54.7209 40.2716C30.8497 39.7683 9.20962 56.8456 2.24789 79.0225C0.654236 84.0886 0 89.4064 0 94.7073L0 120.782C2.18079 92.4989 25.8171 70.2382 54.6538 70.2549C69.8019 70.2549 83.4905 76.3947 93.4215 86.3256L248.526 241.43H248.509Z" fill="url(#paint4_linear_137_147)"/>
<path d="M770.715 212.042L770.185 197.983C770.185 175.678 773.72 154.619 780.79 134.805C775.723 134.212 772.66 133.915 771.599 133.915C766.885 133.915 762.997 134.864 759.933 136.763C756.987 138.542 753.982 140.678 750.918 143.169C746.44 146.966 741.786 148.864 736.954 148.864C734.951 148.864 733.419 148.449 732.358 147.619C731.298 146.669 730.65 145.72 730.414 144.771C730.178 143.822 730.002 142.398 729.884 140.5C729.766 138.602 729.589 137.119 729.354 136.051C729.118 134.983 729 133.915 729 132.847C729 131.78 729.884 130.475 731.651 128.932C741.786 119.915 756.928 115.407 777.079 115.407C780.967 115.407 784.856 115.585 788.745 115.941L790.159 112.737C790.748 113.568 791.514 114.695 792.457 116.119H795.815C806.892 116.119 819.029 113.864 832.228 109.356C833.17 109.119 833.818 109 834.172 109C836.057 109 837 110.008 837 112.025C837 114.042 835.939 116.119 833.818 118.254C823.331 129.881 809.367 135.576 791.926 135.339C788.98 146.847 786.977 160.907 785.917 177.517C784.856 194.127 784.208 203.559 783.972 205.814C783.736 208.068 783.619 210.025 783.619 211.686C783.619 213.347 784.149 216.61 785.21 221.475C786.27 226.339 786.8 229.127 786.8 229.839C786.8 233.28 785.033 235 781.498 235C776.077 235 770.421 228.949 764.529 216.847C763.35 214.712 762.761 212.695 762.761 210.797C762.761 208.78 763.232 207.771 764.175 207.771C765.118 207.771 766.237 208.72 767.534 210.619C768.948 212.517 769.831 213.466 770.185 213.466C770.538 213.466 770.715 212.992 770.715 212.042Z" fill="#EBE1FF"/>
<path fill-rule="evenodd" clip-rule="evenodd" d="M791.491 114.672C791.789 115.114 792.111 115.597 792.457 116.119H795.815C806.892 116.119 819.029 113.864 832.228 109.356C833.17 109.119 833.818 109 834.172 109C836.057 109 837 110.008 837 112.025C837 114.042 835.939 116.119 833.818 118.254C823.331 129.881 809.367 135.576 791.926 135.339C788.98 146.847 786.977 160.907 785.917 177.517C784.856 194.127 784.208 203.559 783.972 205.814C783.736 208.068 783.619 210.025 783.619 211.686C783.619 213.347 784.149 216.61 785.21 221.475C786.27 226.339 786.8 229.127 786.8 229.839C786.8 233.28 785.033 235 781.498 235C776.077 235 770.421 228.949 764.529 216.847C763.35 214.712 762.761 212.695 762.761 210.797C762.761 208.78 763.232 207.771 764.175 207.771C765.118 207.771 766.237 208.72 767.534 210.619C767.98 211.218 768.374 211.723 768.714 212.133C768.742 212.166 768.77 212.199 768.797 212.231C769.489 213.054 769.952 213.466 770.185 213.466C770.538 213.466 770.715 212.992 770.715 212.042L770.185 197.983C770.185 176.402 773.494 155.988 780.113 136.74C780.335 136.093 780.561 135.449 780.79 134.805C780.07 134.721 779.391 134.642 778.751 134.57C774.893 134.134 772.509 133.915 771.599 133.915C766.885 133.915 762.997 134.864 759.933 136.763C756.987 138.542 753.982 140.678 750.918 143.169C746.44 146.966 741.786 148.864 736.954 148.864C734.951 148.864 733.419 148.449 732.358 147.619C731.298 146.669 730.65 145.72 730.414 144.771C730.178 143.822 730.002 142.398 729.884 140.5C729.766 138.602 729.589 137.119 729.354 136.051C729.118 134.983 729 133.915 729 132.847C729 131.78 729.884 130.475 731.651 128.932C741.786 119.915 756.928 115.407 777.079 115.407C780.967 115.407 784.856 115.585 788.745 115.941L790.159 112.737C790.532 113.263 790.976 113.908 791.491 114.672ZM787.492 113.826L789.752 108.707L791.79 111.58C792.265 112.249 792.845 113.097 793.528 114.119H795.815C806.624 114.119 818.54 111.918 831.581 107.463L831.659 107.437L831.739 107.416C832.656 107.186 833.535 107 834.172 107C835.459 107 836.782 107.351 837.754 108.391C838.703 109.405 839 110.741 839 112.025C839 114.768 837.564 117.31 835.272 119.629C824.68 131.353 810.684 137.229 793.487 137.344C790.785 148.413 788.922 161.839 787.912 177.644C786.854 194.225 786.202 203.715 785.961 206.022C785.73 208.23 785.619 210.115 785.619 211.686C785.619 213.096 786.095 216.148 787.164 221.049C787.695 223.487 788.097 225.42 788.367 226.84C788.619 228.165 788.8 229.252 788.8 229.839C788.8 231.882 788.272 233.778 786.87 235.143C785.477 236.499 783.56 237 781.498 237C777.998 237 774.737 235.046 771.729 231.828C768.714 228.602 765.731 223.879 762.752 217.768C761.472 215.434 760.761 213.101 760.761 210.797C760.761 209.696 760.88 208.586 761.303 207.681C761.526 207.202 761.87 206.707 762.395 206.332C762.94 205.943 763.561 205.771 764.175 205.771C765.322 205.771 766.285 206.339 767.015 206.958C767.553 207.414 768.076 207.992 768.586 208.66L768.185 198.021V197.983C768.185 176.35 771.479 155.854 778.078 136.507C774.476 136.104 772.354 135.915 771.599 135.915C767.145 135.915 763.65 136.812 760.986 138.463L760.977 138.469L760.967 138.475C758.116 140.197 755.192 142.273 752.196 144.709C747.442 148.734 742.349 150.864 736.954 150.864C734.713 150.864 732.673 150.405 731.125 149.193L731.074 149.153L731.025 149.109C729.795 148.008 728.84 146.732 728.473 145.253C728.192 144.123 728.007 142.553 727.888 140.624C727.772 138.765 727.603 137.401 727.401 136.482C727.134 135.276 727 134.064 727 132.847C727 131.765 727.442 130.781 728.007 129.946C728.578 129.102 729.375 128.265 730.329 127.432C740.972 117.966 756.674 113.407 777.079 113.407C780.55 113.407 784.021 113.546 787.492 113.826Z" fill="#EBE1FF"/>
<path d="M516.262 196.538C516.262 196.021 516.262 195.506 516.262 194.989C516.262 170.954 516.275 146.922 516.251 122.887C516.246 117.993 518.055 114.118 522.436 111.769C530.056 107.688 539.166 113.035 539.214 121.674C539.304 138.201 539.251 154.727 539.254 171.253C539.254 187.467 539.278 203.684 539.24 219.898C539.224 226.485 534.863 231.957 528.58 233.471C522.785 234.868 516.953 232.581 513.198 227.388C502.767 212.96 492.352 198.524 481.934 184.087C473.361 172.207 464.79 160.324 456.217 148.447C455.945 148.068 455.646 147.711 455.12 147.042C455.12 147.916 455.12 148.425 455.12 148.934C455.12 172.969 455.12 197.002 455.12 221.036C455.12 224.813 454.261 228.284 451.319 230.893C447.849 233.975 443.824 234.606 439.516 233.06C435.232 231.525 432.913 228.295 432.219 223.875C432.035 222.697 432.008 221.487 432.008 220.29C432 188.573 432 156.854 432 125.134C432 119.323 434.317 114.792 439.527 112.017C445.791 108.683 453.676 110.607 457.933 116.474C472.477 136.527 486.989 156.606 501.512 176.674C506.146 183.077 510.777 189.477 515.413 195.879C515.592 196.127 515.784 196.364 515.971 196.607C516.067 196.583 516.166 196.562 516.262 196.538Z" fill="#EBE1FF"/>
<path d="M945.167 171.991C945.199 159.727 947.583 148.028 953.719 137.281C961.812 123.108 973.991 114.339 989.84 110.767C1002.08 108.006 1014.29 108.416 1026.23 112.454C1041.25 117.532 1051.99 127.44 1058.69 141.74C1062.5 149.87 1064.35 158.477 1064.85 167.417C1065.47 178.37 1064.18 189.037 1060.01 199.222C1052.36 217.904 1038.58 229.457 1018.79 233.514C1005.05 236.328 991.551 235.246 978.662 229.403C966.072 223.697 957.085 214.317 951.346 201.829C947.036 192.446 945.157 182.978 945.167 171.996V171.991ZM969.219 169.619C969.208 178.729 969.926 185.236 971.936 191.545C974.517 199.646 978.857 206.517 986.277 211.059C993.292 215.354 1001.01 216.516 1009.08 215.753C1022.25 214.511 1031.32 207.68 1036.53 195.618C1039.08 189.73 1040.2 183.522 1040.6 177.154C1041.17 167.99 1040.47 158.973 1037.28 150.286C1034.43 142.497 1029.75 136.119 1022.31 132.091C1015.7 128.509 1008.57 127.541 1001.15 128.226C988.573 129.388 979.543 135.666 974.122 147.023C970.337 154.953 969.253 163.448 969.219 169.619Z" fill="#EBE1FF"/>
<path d="M881.105 110.426C888.672 110.914 895.19 115.245 898.735 123.479C903.846 135.351 908.648 147.357 913.581 159.306C921.604 178.745 929.582 198.204 937.672 217.614C940.672 224.811 936.618 231.285 931.101 233.175C925.76 235.006 919.685 232.559 917.515 227.338C914.339 219.696 911.416 211.947 908.392 204.241C907.346 201.573 907.354 201.568 904.524 201.568C887.356 201.568 870.189 201.581 853.021 201.538C851.948 201.538 851.507 201.869 851.126 202.839C848.091 210.588 845 218.315 841.909 226.042C840.308 230.043 837.62 232.813 833.211 233.62C827.304 234.702 821.277 230.016 820.826 223.992C820.668 221.876 820.957 219.85 821.763 217.878C834.612 186.398 847.432 154.908 860.308 123.442C863.583 115.437 871.176 110.423 881.105 110.423V110.426ZM899.96 182.869C893.143 165.658 886.377 148.572 879.501 131.206C872.607 148.625 865.843 165.709 859.05 182.869H899.96Z" fill="#EBE1FF"/>
<path d="M581.8 193.563C582.277 198.782 583.302 203.679 585.883 208.154C588.368 212.459 591.961 215.407 596.715 216.857C602.368 218.581 608.08 218.667 613.784 217.105C618.594 215.788 622.394 213 625.315 208.991C628.549 204.545 634.077 203.527 638.607 206.552C642.957 209.457 644.175 215.14 641.329 219.704C639.143 223.209 635.922 225.685 632.545 227.932C626.812 231.744 620.409 233.674 613.608 234.447C605.846 235.329 598.159 235.052 590.64 232.837C574.844 228.185 565.096 217.619 561.231 201.805C558.25 189.605 558.786 177.466 564.061 165.887C570.104 152.624 580.58 144.915 594.889 142.385C603.916 140.789 612.804 141.42 621.321 144.894C633.506 149.862 641.081 159.053 644.586 171.557C645.677 175.448 646.166 179.545 646.547 183.586C647.079 189.192 642.896 193.536 637.222 193.555C627.348 193.59 617.475 193.566 607.602 193.566C599.507 193.566 591.414 193.566 583.318 193.566C582.841 193.566 582.36 193.566 581.8 193.566V193.563ZM624.535 179.657C624.575 179.468 624.631 179.343 624.623 179.223C624.551 178.25 624.503 177.271 624.38 176.304C623.657 170.594 621.474 165.653 616.808 162.022C608.785 155.777 591.184 155.348 584.746 170.208C583.444 173.217 582.539 176.331 582.179 179.654H624.535V179.657Z" fill="#EBE1FF"/>
<path d="M669.499 160.559C667.118 160.559 664.9 160.633 662.69 160.545C656.679 160.303 652.825 153.882 655.478 148.487C657.008 145.381 659.672 143.878 663.093 143.758C665.173 143.686 667.257 143.745 669.499 143.745C669.499 143.081 669.491 142.521 669.499 141.959C669.577 137.745 669.366 133.501 669.812 129.327C670.407 123.751 675.329 119.95 681.166 120.027C686.723 120.102 691.608 124.14 692.126 129.532C692.507 133.496 692.342 137.51 692.416 141.503C692.43 142.201 692.416 142.902 692.416 143.742C696.706 143.742 700.875 143.729 705.041 143.753C705.925 143.758 706.822 143.814 707.684 143.987C712.165 144.886 714.736 148.513 714.325 153.29C713.991 157.158 710.497 160.439 706.405 160.54C702.271 160.641 698.134 160.58 693.997 160.591C693.519 160.591 693.044 160.591 692.481 160.591C692.457 161.169 692.419 161.601 692.419 162.033C692.419 175.936 692.408 189.839 692.43 203.743C692.43 205.337 692.529 206.939 692.718 208.519C693.212 212.667 695.262 214.711 699.428 215.095C701.099 215.25 702.821 215.231 704.486 215.034C709.52 214.434 713.815 217.427 714.781 222.342C715.694 226.98 712.654 231.746 707.78 232.711C702.666 233.724 697.445 233.764 692.24 233.399C688.399 233.13 684.687 232.309 681.246 230.523C675.305 227.442 671.968 222.35 670.634 215.993C669.929 212.632 669.571 209.143 669.542 205.707C669.425 191.271 669.494 176.834 669.491 162.398C669.491 161.868 669.491 161.337 669.491 160.559H669.499Z" fill="#EBE1FF"/>
<defs>
<linearGradient id="paint0_linear_137_147" x1="283.61" y1="64.4228" x2="37.9314" y2="319.882" gradientUnits="userSpaceOnUse">
<stop stop-color="#B1A5FF"/>
<stop offset="0.422407" stop-color="#6037FF"/>
<stop offset="1" stop-color="#693FFF"/>
</linearGradient>
<linearGradient id="paint1_linear_137_147" x1="3.31871e-07" y1="73.1503" x2="304.069" y2="339.307" gradientUnits="userSpaceOnUse">
<stop stop-color="#B0A3FF"/>
<stop offset="1" stop-color="#6A53FF"/>
</linearGradient>
<linearGradient id="paint2_linear_137_147" x1="3.31871e-07" y1="111.734" x2="304.069" y2="377.891" gradientUnits="userSpaceOnUse">
<stop stop-color="#B0A3FF"/>
<stop offset="1" stop-color="#6A53FF"/>
</linearGradient>
<linearGradient id="paint3_linear_137_147" x1="3.31871e-07" y1="-5.69275" x2="304.069" y2="260.464" gradientUnits="userSpaceOnUse">
<stop stop-color="#B0A3FF"/>
<stop offset="1" stop-color="#6A53FF"/>
</linearGradient>
<linearGradient id="paint4_linear_137_147" x1="3.31871e-07" y1="34.568" x2="304.069" y2="300.724" gradientUnits="userSpaceOnUse">
<stop stop-color="#B0A3FF"/>
<stop offset="1" stop-color="#6A53FF"/>
</linearGradient>
</defs>
</svg>
