<svg width="109" height="38" viewBox="0 0 109 38" fill="none" xmlns="http://www.w3.org/2000/svg">
<g clip-path="url(#clip0_1_373)">
<path d="M10.0805 23.9087C9.36074 26.2569 10.6809 28.744 13.0291 29.4637C15.3774 30.1834 17.8644 28.8633 18.5842 26.515C19.3039 24.1668 17.9837 21.6797 15.6355 20.96C13.2872 20.2403 10.8002 21.5605 10.0805 23.9087Z" fill="url(#paint0_linear_1_373)"/>
<path d="M34.6662 22.2474C33.479 21.9293 32.5347 21.16 31.9655 20.1741L31.0405 18.5719L33.1449 10.7182C33.7804 8.34647 36.2189 6.9375 38.592 7.57336C39.7783 7.89192 40.7226 8.66121 41.2913 9.64627C41.8605 10.6321 42.0538 11.835 41.736 13.0209L40.0477 19.322C39.325 21.5614 36.9638 22.8637 34.6662 22.2474Z" fill="url(#paint1_linear_1_373)"/>
<path d="M11.7238 17.7571C11.7351 17.7228 11.7463 17.6885 11.7579 17.6551L11.7509 17.6559L11.7238 17.7571Z" fill="url(#paint2_linear_1_373)"/>
<path d="M11.7588 17.6558L11.7618 17.6449C11.7618 17.6449 11.7591 17.6523 11.758 17.6563L11.7588 17.6558Z" fill="url(#paint3_linear_1_373)"/>
<path d="M40.012 19.4233L40.0091 19.4342C40.0091 19.4342 40.0118 19.4269 40.0129 19.4228L40.012 19.4233Z" fill="url(#paint4_linear_1_373)"/>
<path d="M28.7057 32.3176C29.2861 33.3323 30.2771 34.0917 31.4063 34.3909C33.2661 34.9319 35.3207 34.0481 36.3319 32.4566C36.5634 32.0931 36.7262 31.6903 36.8377 31.2743L40.0098 19.4357C39.2453 21.6062 36.9257 22.8546 34.6659 22.2485C33.4788 21.9304 32.5345 21.1611 31.9653 20.1752L31.0403 18.573L23.067 4.76288C22.4865 3.74825 21.4956 2.98881 20.3664 2.68963C18.5065 2.14861 16.4519 3.03239 15.4408 4.62396C15.2092 4.9874 15.0464 5.39026 14.935 5.8062L11.7628 17.6448C12.5273 15.4743 14.847 14.2259 17.1067 14.8321C18.2939 15.1502 19.2381 15.9194 19.8073 16.9053L28.7057 32.3176Z" fill="url(#paint5_linear_1_373)"/>
<path d="M40.0478 19.3219C40.0366 19.3561 40.0254 19.3904 40.0137 19.4238L40.0207 19.423L40.0478 19.3219Z" fill="url(#paint6_linear_1_373)"/>
<path d="M81.511 22.6671L81.462 21.3659C81.462 19.3015 81.7891 17.3525 82.4435 15.5187C81.9745 15.4638 81.691 15.4363 81.5928 15.4363C81.1566 15.4363 80.7967 15.5242 80.5131 15.6999C80.2405 15.8646 79.9624 16.0622 79.6788 16.2928C79.2644 16.6442 78.8336 16.8199 78.3864 16.8199C78.201 16.8199 78.0592 16.7815 77.9611 16.7046C77.8629 16.6168 77.8029 16.5289 77.7811 16.4411C77.7593 16.3532 77.743 16.2215 77.732 16.0458C77.7211 15.8701 77.7048 15.7328 77.683 15.634C77.6612 15.5352 77.6502 15.4363 77.6502 15.3375C77.6502 15.2387 77.732 15.1179 77.8956 14.9752C78.8336 14.1406 80.235 13.7234 82.1 13.7234C82.4599 13.7234 82.8198 13.7398 83.1797 13.7728L83.3106 13.4763C83.3651 13.5532 83.436 13.6575 83.5232 13.7893H83.8341C84.8592 13.7893 85.9826 13.5806 87.2041 13.1634C87.2913 13.1414 87.3513 13.1304 87.384 13.1304C87.5585 13.1304 87.6458 13.2237 87.6458 13.4104C87.6458 13.5971 87.5476 13.7893 87.3513 13.9869C86.3806 15.063 85.0883 15.5901 83.4741 15.5681C83.2015 16.6332 83.0161 17.9344 82.9179 19.4717C82.8198 21.009 82.7598 21.882 82.738 22.0906C82.7162 22.2992 82.7053 22.4804 82.7053 22.6341C82.7053 22.7879 82.7543 23.0898 82.8525 23.5401C82.9507 23.9903 82.9997 24.2483 82.9997 24.3142C82.9997 24.6326 82.8361 24.7918 82.509 24.7918C82.0073 24.7918 81.4838 24.2318 80.9385 23.1118C80.8294 22.9142 80.7749 22.7275 80.7749 22.5518C80.7749 22.3651 80.8185 22.2718 80.9057 22.2718C80.993 22.2718 81.0966 22.3596 81.2166 22.5353C81.3474 22.711 81.4292 22.7989 81.462 22.7989C81.4947 22.7989 81.511 22.7549 81.511 22.6671Z" fill="#EBE1FF"/>
<path fill-rule="evenodd" clip-rule="evenodd" d="M83.4338 13.6554C83.4614 13.6963 83.4912 13.7409 83.5232 13.7893H83.8341C84.8592 13.7893 85.9826 13.5806 87.2041 13.1634C87.2913 13.1414 87.3513 13.1304 87.384 13.1304C87.5585 13.1304 87.6458 13.2237 87.6458 13.4104C87.6458 13.5971 87.5476 13.7893 87.3513 13.9869C86.3806 15.063 85.0883 15.5901 83.4741 15.5681C83.2015 16.6332 83.0161 17.9344 82.9179 19.4717C82.8198 21.009 82.7598 21.882 82.738 22.0906C82.7162 22.2992 82.7053 22.4804 82.7053 22.6341C82.7053 22.7879 82.7543 23.0898 82.8525 23.5401C82.9507 23.9903 82.9997 24.2483 82.9997 24.3142C82.9997 24.6326 82.8361 24.7918 82.509 24.7918C82.0073 24.7918 81.4838 24.2318 80.9385 23.1118C80.8294 22.9142 80.7749 22.7275 80.7749 22.5518C80.7749 22.3651 80.8185 22.2718 80.9057 22.2718C80.993 22.2718 81.0966 22.3596 81.2166 22.5353C81.2579 22.5908 81.2943 22.6375 81.3259 22.6755C81.3284 22.6786 81.331 22.6816 81.3335 22.6846C81.3976 22.7608 81.4404 22.7989 81.462 22.7989C81.4947 22.7989 81.511 22.7549 81.511 22.6671L81.462 21.3659C81.462 19.3686 81.7682 17.4792 82.3808 15.6977C82.4014 15.6379 82.4223 15.5783 82.4435 15.5187C82.3769 15.5109 82.314 15.5036 82.2548 15.497C81.8977 15.4565 81.677 15.4363 81.5928 15.4363C81.1566 15.4363 80.7967 15.5242 80.5131 15.6999C80.2405 15.8646 79.9624 16.0622 79.6788 16.2928C79.2644 16.6442 78.8336 16.8199 78.3864 16.8199C78.201 16.8199 78.0592 16.7815 77.9611 16.7046C77.8629 16.6168 77.8029 16.5289 77.7811 16.4411C77.7593 16.3532 77.743 16.2215 77.732 16.0458C77.7211 15.8701 77.7048 15.7328 77.683 15.634C77.6612 15.5352 77.6502 15.4363 77.6502 15.3375C77.6502 15.2387 77.732 15.1179 77.8956 14.9752C78.8336 14.1406 80.235 13.7234 82.1 13.7234C82.4599 13.7234 82.8198 13.7398 83.1797 13.7728L83.3106 13.4763C83.3451 13.525 83.3862 13.5847 83.4338 13.6554ZM83.0638 13.577L83.2729 13.1033L83.4615 13.3692C83.5055 13.4311 83.5591 13.5096 83.6224 13.6042H83.8341C84.8344 13.6042 85.9372 13.4005 87.1442 12.9882L87.1515 12.9857L87.1589 12.9839C87.2437 12.9625 87.3251 12.9453 87.384 12.9453C87.5031 12.9453 87.6256 12.9778 87.7155 13.074C87.8033 13.1679 87.8309 13.2915 87.8309 13.4104C87.8309 13.6642 87.6979 13.8996 87.4858 14.1141C86.5055 15.1992 85.2102 15.743 83.6185 15.7537C83.3686 16.7781 83.1961 18.0207 83.1027 19.4835C83.0047 21.0181 82.9444 21.8964 82.9221 22.1099C82.9007 22.3142 82.8904 22.4887 82.8904 22.6341C82.8904 22.7646 82.9345 23.0471 83.0333 23.5006C83.0826 23.7263 83.1198 23.9052 83.1448 24.0367C83.1681 24.1592 83.1848 24.2598 83.1848 24.3142C83.1848 24.5032 83.136 24.6787 83.0061 24.8051C82.8772 24.9305 82.6998 24.9769 82.509 24.9769C82.1851 24.9769 81.8833 24.7961 81.6048 24.4982C81.3258 24.1997 81.0497 23.7626 80.7741 23.197C80.6556 22.981 80.5898 22.765 80.5898 22.5518C80.5898 22.4499 80.6008 22.3472 80.6399 22.2634C80.6606 22.2191 80.6924 22.1733 80.741 22.1386C80.7915 22.1026 80.8489 22.0867 80.9057 22.0867C81.0119 22.0867 81.1011 22.1392 81.1686 22.1965C81.2184 22.2387 81.2668 22.2922 81.314 22.354L81.2769 21.3694V21.3659C81.2769 19.3637 81.5817 17.4668 82.1925 15.6762C81.8591 15.6389 81.6627 15.6214 81.5928 15.6214C81.1806 15.6214 80.8572 15.7045 80.6106 15.8572L80.6097 15.8578L80.6088 15.8583C80.345 16.0177 80.0744 16.2098 79.797 16.4353C79.3571 16.8078 78.8858 17.005 78.3864 17.005C78.179 17.005 77.9902 16.9625 77.847 16.8503L77.8422 16.8466L77.8376 16.8425C77.7238 16.7407 77.6355 16.6225 77.6015 16.4857C77.5755 16.3811 77.5584 16.2357 77.5473 16.0572C77.5366 15.8852 77.521 15.759 77.5022 15.6739C77.4776 15.5623 77.4651 15.4501 77.4651 15.3375C77.4651 15.2374 77.506 15.1463 77.5583 15.069C77.6112 14.9909 77.685 14.9134 77.7733 14.8363C78.7583 13.9603 80.2115 13.5383 82.1 13.5383C82.4213 13.5383 82.7425 13.5512 83.0638 13.577Z" fill="#EBE1FF"/>
<path d="M57.9611 21.2321C57.9611 21.1843 57.9611 21.1366 57.9611 21.0888C57.9611 18.8643 57.9623 16.6401 57.9601 14.4157C57.9596 13.9628 58.1271 13.6041 58.5325 13.3867C59.2378 13.009 60.0809 13.5039 60.0853 14.3034C60.0937 15.833 60.0888 17.3625 60.089 18.892C60.089 20.3926 60.0913 21.8935 60.0878 23.3942C60.0863 24.0037 59.6827 24.5102 59.1012 24.6503C58.5649 24.7796 58.0251 24.5679 57.6775 24.0874C56.7121 22.752 55.7482 21.4159 54.7841 20.0798C53.9906 18.9803 53.1974 17.8805 52.4039 16.7812C52.3787 16.7462 52.351 16.7132 52.3024 16.6512C52.3024 16.7322 52.3024 16.7793 52.3024 16.8264C52.3024 19.0508 52.3024 21.275 52.3024 23.4995C52.3024 23.8491 52.2228 24.1703 51.9506 24.4118C51.6295 24.697 51.2569 24.7554 50.8582 24.6123C50.4618 24.4702 50.2471 24.1712 50.1829 23.7622C50.1658 23.6532 50.1633 23.5412 50.1633 23.4304C50.1626 20.495 50.1626 17.5593 50.1626 14.6237C50.1626 14.0859 50.377 13.6665 50.8592 13.4097C51.439 13.101 52.1687 13.2792 52.5627 13.8221C53.9088 15.678 55.2519 17.5364 56.596 19.3937C57.0249 19.9863 57.4535 20.5786 57.8826 21.1712C57.8991 21.1941 57.9169 21.2161 57.9342 21.2385C57.9431 21.2363 57.9522 21.2343 57.9611 21.2321Z" fill="#EBE1FF"/>
<path d="M97.6567 18.9603C97.6597 17.8253 97.8803 16.7425 98.4482 15.7478C99.1972 14.4362 100.324 13.6245 101.791 13.294C102.924 13.0384 104.054 13.0764 105.16 13.4501C106.549 13.9201 107.543 14.837 108.163 16.1606C108.516 16.913 108.687 17.7096 108.734 18.537C108.791 19.5506 108.671 20.5379 108.285 21.4805C107.577 23.2096 106.302 24.2788 104.47 24.6543C103.199 24.9148 101.95 24.8146 100.757 24.2739C99.5915 23.7457 98.7597 22.8776 98.2286 21.7218C97.8297 20.8534 97.6558 19.9772 97.6567 18.9608V18.9603ZM99.8827 18.7407C99.8818 19.5839 99.9482 20.1861 100.134 20.7701C100.373 21.5198 100.775 22.1557 101.462 22.5761C102.111 22.9735 102.825 23.0811 103.572 23.0105C104.791 22.8956 105.631 22.2633 106.113 21.147C106.348 20.6021 106.453 20.0275 106.489 19.4382C106.542 18.59 106.477 17.7554 106.182 16.9515C105.918 16.2306 105.485 15.6403 104.797 15.2675C104.185 14.936 103.525 14.8464 102.838 14.9098C101.674 15.0174 100.838 15.5983 100.337 16.6495C99.9862 17.3834 99.8859 18.1696 99.8827 18.7407Z" fill="#EBE1FF"/>
<path d="M91.7278 13.2624C92.4281 13.3075 93.0313 13.7084 93.3594 14.4705C93.8325 15.5692 94.2769 16.6803 94.7334 17.7863C95.476 19.5854 96.2143 21.3863 96.9631 23.1827C97.2407 23.8488 96.8655 24.448 96.3549 24.6229C95.8606 24.7924 95.2983 24.566 95.0975 24.0827C94.8035 23.3754 94.533 22.6583 94.2532 21.9451C94.1563 21.6981 94.1571 21.6976 93.8952 21.6976C92.3063 21.6976 90.7174 21.6989 89.1285 21.6949C89.0292 21.6949 88.9884 21.7255 88.9531 21.8153C88.6722 22.5324 88.3862 23.2476 88.1001 23.9628C87.9519 24.3331 87.7031 24.5894 87.295 24.6641C86.7484 24.7643 86.1906 24.3306 86.1488 23.7731C86.1342 23.5772 86.1609 23.3897 86.2355 23.2072C87.4247 20.2937 88.6112 17.3792 89.8029 14.467C90.106 13.7262 90.8088 13.2621 91.7278 13.2621V13.2624ZM93.4728 19.9671C92.8419 18.3742 92.2156 16.7928 91.5793 15.1856C90.9412 16.7978 90.3152 18.3788 89.6865 19.9671H93.4728Z" fill="#EBE1FF"/>
<path d="M64.0267 20.9568C64.0709 21.4398 64.1658 21.893 64.4047 22.3072C64.6347 22.7056 64.9672 22.9785 65.4071 23.1127C65.9303 23.2723 66.459 23.2802 66.9869 23.1356C67.432 23.0138 67.7838 22.7557 68.0541 22.3847C68.3535 21.9732 68.8651 21.879 69.2843 22.159C69.6869 22.4279 69.7996 22.9538 69.5362 23.3761C69.3339 23.7006 69.0358 23.9297 68.7233 24.1377C68.1926 24.4905 67.6 24.6691 66.9706 24.7406C66.2522 24.8223 65.5408 24.7966 64.8449 24.5916C63.3829 24.1611 62.4808 23.1832 62.1231 21.7196C61.8472 20.5905 61.8968 19.467 62.3849 18.3954C62.9442 17.1678 63.9138 16.4544 65.2381 16.2203C66.0736 16.0725 66.8962 16.131 67.6845 16.4524C68.8122 16.9122 69.5133 17.7628 69.8376 18.9201C69.9387 19.2803 69.9839 19.6594 70.0192 20.0334C70.0683 20.5522 69.6812 20.9543 69.1561 20.9561C68.2423 20.9593 67.3285 20.9571 66.4148 20.9571C65.6655 20.9571 64.9165 20.9571 64.1673 20.9571C64.123 20.9571 64.0786 20.9571 64.0267 20.9571V20.9568ZM67.9819 19.6698C67.9856 19.6523 67.9908 19.6407 67.9901 19.6296C67.9834 19.5395 67.979 19.449 67.9676 19.3595C67.9006 18.831 67.6986 18.3737 67.2668 18.0377C66.5242 17.4597 64.8953 17.4199 64.2994 18.7953C64.1789 19.0738 64.0951 19.3619 64.0618 19.6696H67.9819V19.6698Z" fill="#EBE1FF"/>
<path d="M72.1434 17.9022C71.923 17.9022 71.7178 17.9091 71.5132 17.901C70.9569 17.8785 70.6002 17.2843 70.8457 16.7849C70.9873 16.4975 71.2338 16.3584 71.5505 16.3473C71.743 16.3406 71.9359 16.3461 72.1434 16.3461C72.1434 16.2846 72.1427 16.2328 72.1434 16.1808C72.1506 15.7908 72.131 15.398 72.1723 15.0117C72.2274 14.4956 72.6829 14.1438 73.2232 14.151C73.7375 14.1579 74.1896 14.5316 74.2375 15.0307C74.2728 15.3975 74.2575 15.7691 74.2644 16.1386C74.2656 16.2032 74.2644 16.2681 74.2644 16.3458C74.6614 16.3458 75.0472 16.3446 75.4329 16.3468C75.5146 16.3473 75.5976 16.3525 75.6774 16.3685C76.0922 16.4517 76.3301 16.7874 76.292 17.2295C76.2612 17.5874 75.9378 17.8911 75.5591 17.9005C75.1764 17.9099 74.7935 17.9042 74.4107 17.9052C74.3664 17.9052 74.3225 17.9052 74.2703 17.9052C74.2681 17.9587 74.2647 17.9987 74.2647 18.0387C74.2647 19.3254 74.2637 20.6122 74.2656 21.8989C74.2656 22.0465 74.2748 22.1947 74.2923 22.341C74.338 22.7249 74.5277 22.9141 74.9134 22.9496C75.068 22.9639 75.2273 22.9622 75.3815 22.9439C75.8474 22.8884 76.2449 23.1655 76.3343 23.6204C76.4188 24.0496 76.1374 24.4907 75.6863 24.58C75.213 24.6738 74.7298 24.6775 74.2481 24.6437C73.8926 24.6187 73.549 24.5428 73.2306 24.3775C72.6807 24.0923 72.3719 23.6211 72.2484 23.0327C72.1832 22.7217 72.1501 22.3987 72.1474 22.0808C72.1365 20.7447 72.1429 19.4085 72.1427 18.0724C72.1427 18.0234 72.1427 17.9743 72.1427 17.9022H72.1434Z" fill="#EBE1FF"/>
</g>
<defs>
<linearGradient id="paint0_linear_1_373" x1="17.4028" y1="20.5614" x2="15.2732" y2="30.1515" gradientUnits="userSpaceOnUse">
<stop stop-color="#6037FF"/>
<stop offset="1" stop-color="#B27AFF"/>
</linearGradient>
<linearGradient id="paint1_linear_1_373" x1="37.5294" y1="21.1778" x2="40.7815" y2="9.04081" gradientUnits="userSpaceOnUse">
<stop stop-color="#6037FF"/>
<stop offset="1" stop-color="#B27AFF"/>
</linearGradient>
<linearGradient id="paint2_linear_1_373" x1="25.236" y1="41.0818" x2="6.21933" y2="8.1426" gradientUnits="userSpaceOnUse">
<stop stop-color="#F15A29"/>
<stop offset="0.34" stop-color="#EF4136"/>
<stop offset="0.64" stop-color="#ED1C24"/>
<stop offset="1" stop-color="#BE1E2D"/>
</linearGradient>
<linearGradient id="paint3_linear_1_373" x1="26.317" y1="42.8643" x2="5.83303" y2="7.38647" gradientUnits="userSpaceOnUse">
<stop stop-color="#F15A29"/>
<stop offset="0.34" stop-color="#EF4136"/>
<stop offset="0.64" stop-color="#ED1C24"/>
<stop offset="1" stop-color="#BE1E2D"/>
</linearGradient>
<linearGradient id="paint4_linear_1_373" x1="46.1276" y1="30.023" x2="25.6591" y2="-5.4295" gradientUnits="userSpaceOnUse">
<stop stop-color="#F15A29"/>
<stop offset="0.34" stop-color="#EF4136"/>
<stop offset="0.64" stop-color="#ED1C24"/>
<stop offset="1" stop-color="#BE1E2D"/>
</linearGradient>
<linearGradient id="paint5_linear_1_373" x1="17.0211" y1="3.14833" x2="34.7909" y2="33.9265" gradientUnits="userSpaceOnUse">
<stop stop-color="#6037FF"/>
<stop offset="1" stop-color="#B27AFF"/>
</linearGradient>
<linearGradient id="paint6_linear_1_373" x1="45.7335" y1="29.2489" x2="26.7162" y2="-3.69001" gradientUnits="userSpaceOnUse">
<stop stop-color="#F15A29"/>
<stop offset="0.34" stop-color="#EF4136"/>
<stop offset="0.64" stop-color="#ED1C24"/>
<stop offset="1" stop-color="#BE1E2D"/>
</linearGradient>
<clipPath id="clip0_1_373">
<rect width="108.747" height="38" fill="white"/>
</clipPath>
</defs>
</svg>
