<svg width="12" height="12" viewBox="0 0 12 12" fill="none" xmlns="http://www.w3.org/2000/svg">
<g clip-path="url(#clip0_28_2084)">
<path d="M9.75496 6.75C9.75591 6.9029 9.70945 7.05233 9.62198 7.17774C9.53452 7.30316 9.41033 7.39838 9.26652 7.45031L6.84543 8.34094L5.9548 10.7602C5.90206 10.9034 5.80664 11.0271 5.68141 11.1144C5.55618 11.2018 5.40717 11.2486 5.25449 11.2486C5.10181 11.2486 4.9528 11.2018 4.82757 11.1144C4.70234 11.0271 4.60692 10.9034 4.55418 10.7602L3.66121 8.34375L1.24152 7.45312C1.09824 7.40038 0.974579 7.30496 0.887232 7.17973C0.799885 7.0545 0.753052 6.90549 0.753052 6.75281C0.753052 6.60013 0.799885 6.45112 0.887232 6.32589C0.974579 6.20066 1.09824 6.10524 1.24152 6.0525L3.66261 5.16188L4.55324 2.74266C4.60598 2.59937 4.7014 2.47572 4.82663 2.38837C4.95186 2.30102 5.10087 2.25419 5.25355 2.25419C5.40623 2.25419 5.55524 2.30102 5.68047 2.38837C5.8057 2.47572 5.90112 2.59937 5.95386 2.74266L6.84449 5.16375L9.26371 6.05438C9.40729 6.10557 9.53155 6.19988 9.61948 6.3244C9.70742 6.44892 9.75473 6.59756 9.75496 6.75ZM7.12996 2.25H7.87996V3C7.87996 3.09946 7.91947 3.19484 7.98979 3.26516C8.06012 3.33549 8.1555 3.375 8.25496 3.375C8.35441 3.375 8.4498 3.33549 8.52012 3.26516C8.59045 3.19484 8.62996 3.09946 8.62996 3V2.25H9.37996C9.47941 2.25 9.5748 2.21049 9.64512 2.14016C9.71545 2.06984 9.75496 1.97446 9.75496 1.875C9.75496 1.77554 9.71545 1.68016 9.64512 1.60984C9.5748 1.53951 9.47941 1.5 9.37996 1.5H8.62996V0.75C8.62996 0.650544 8.59045 0.555161 8.52012 0.484835C8.4498 0.414509 8.35441 0.375 8.25496 0.375C8.1555 0.375 8.06012 0.414509 7.98979 0.484835C7.91947 0.555161 7.87996 0.650544 7.87996 0.75V1.5H7.12996C7.0305 1.5 6.93512 1.53951 6.86479 1.60984C6.79447 1.68016 6.75496 1.77554 6.75496 1.875C6.75496 1.97446 6.79447 2.06984 6.86479 2.14016C6.93512 2.21049 7.0305 2.25 7.12996 2.25ZM11.255 3.75H10.88V3.375C10.88 3.27554 10.8404 3.18016 10.7701 3.10984C10.6998 3.03951 10.6044 3 10.505 3C10.4055 3 10.3101 3.03951 10.2398 3.10984C10.1695 3.18016 10.13 3.27554 10.13 3.375V3.75H9.75496C9.6555 3.75 9.56012 3.78951 9.48979 3.85984C9.41947 3.93016 9.37996 4.02554 9.37996 4.125C9.37996 4.22446 9.41947 4.31984 9.48979 4.39016C9.56012 4.46049 9.6555 4.5 9.75496 4.5H10.13V4.875C10.13 4.97446 10.1695 5.06984 10.2398 5.14016C10.3101 5.21049 10.4055 5.25 10.505 5.25C10.6044 5.25 10.6998 5.21049 10.7701 5.14016C10.8404 5.06984 10.88 4.97446 10.88 4.875V4.5H11.255C11.3544 4.5 11.4498 4.46049 11.5201 4.39016C11.5904 4.31984 11.63 4.22446 11.63 4.125C11.63 4.02554 11.5904 3.93016 11.5201 3.85984C11.4498 3.78951 11.3544 3.75 11.255 3.75Z" fill="#9584FF"/>
</g>
<defs>
<clipPath id="clip0_28_2084">
<rect width="12" height="12" fill="white" transform="translate(0.00500488)"/>
</clipPath>
</defs>
</svg>
