<svg width="80" height="33" viewBox="0 0 80 33" fill="none" xmlns="http://www.w3.org/2000/svg">
<path d="M34.6556 8.30596C34.3678 8.63022 34.1708 8.84674 33.9802 9.06854C32.8421 10.3904 31.7067 11.7138 30.5681 13.0346C30.1213 13.5526 29.7812 13.5484 29.3276 13.0208C28.1283 11.6272 26.9311 10.2319 25.7318 8.83776C25.6119 8.69834 25.4846 8.56579 25.351 8.41898C25.154 8.61279 25.2417 8.83089 25.2412 9.02154C25.2343 11.9984 25.228 14.9748 25.2443 17.9517C25.2465 18.361 25.1646 18.5115 24.7184 18.4962C23.6579 18.4597 22.5949 18.4724 21.5334 18.4914C21.2049 18.4972 21.1167 18.389 21.1172 18.0705C21.1257 12.8756 21.1257 7.68069 21.1172 2.48578C21.1167 2.16153 21.2134 2.06383 21.5339 2.06964C22.4819 2.08759 23.4303 2.09076 24.3777 2.06752C24.6983 2.0596 24.8525 2.23757 25.0278 2.44089C26.4885 4.13503 27.953 5.82601 29.4158 7.51804C29.7774 7.93594 30.1444 7.9289 30.5169 7.49691C31.9792 5.80488 33.4478 4.11813 34.8996 2.41713C35.1182 2.161 35.3421 2.06013 35.6764 2.06805C36.5668 2.09023 37.4588 2.08442 38.3497 2.07016C38.6422 2.06541 38.7906 2.10449 38.7901 2.46043C38.779 7.67436 38.779 12.8883 38.789 18.1022C38.7896 18.4629 38.6259 18.493 38.3407 18.4904C37.2977 18.4793 36.2542 18.4603 35.2127 18.4972C34.776 18.5125 34.6809 18.3826 34.6836 17.9644C34.7015 14.988 34.6936 12.0111 34.692 9.03421C34.692 8.83723 34.6741 8.64025 34.6577 8.30596H34.6556Z" fill="#86858C"/>
<path d="M41.3524 10.2483C41.3524 7.68914 41.3535 5.12997 41.3514 2.5708C41.3514 2.30253 41.298 2.06119 41.73 2.06594C44.4027 2.0971 47.0797 2.01154 49.7471 2.14146C52.3279 2.26715 54.5755 3.24941 56.1561 5.41145C59.6812 10.2325 57.1368 16.9219 51.3161 18.1608C50.3312 18.3705 49.3336 18.4787 48.3281 18.4835C46.1856 18.4925 44.0431 18.4724 41.9011 18.4972C41.4443 18.5025 41.3382 18.3663 41.3413 17.9264C41.3619 15.3672 41.3514 12.808 41.3514 10.2488L41.3524 10.2483ZM47.3627 15.4438C47.6659 15.4438 47.969 15.4459 48.2716 15.4438C51.4555 15.421 53.3466 13.5658 53.4401 10.3745C53.5183 7.70076 52.1584 5.82865 49.7202 5.26464C48.3925 4.95728 47.0416 5.13103 45.7019 5.08508C45.3913 5.07452 45.4447 5.29051 45.4447 5.47218C45.4441 8.67246 45.4489 11.8727 45.4378 15.073C45.4367 15.3836 45.5424 15.4596 45.8286 15.449C46.3393 15.4306 46.851 15.4438 47.3622 15.4438H47.3627Z" fill="#86858C"/>
<path d="M79.4126 20.0055C78.7989 19.3506 78.2085 18.6947 77.5901 18.0658C76.4077 16.8633 75.2173 15.6677 74.0111 14.4884C73.7291 14.2128 73.6251 13.9313 73.6283 13.5421C73.6446 11.3246 73.6256 9.10656 73.6457 6.88907C73.6494 6.45814 73.5142 6.3446 73.0954 6.34777C70.8209 6.36625 68.5459 6.35569 66.2713 6.35728C66.0046 6.35728 65.7654 6.35041 65.5447 6.13231C63.8474 4.45295 62.1363 2.7868 60.4311 1.11536C60.3809 1.06625 60.3434 1.00393 60.2853 0.929469C60.4601 0.812231 60.6328 0.855007 60.7912 0.855007C66.876 0.852367 72.9608 0.856591 79.0455 0.844973C79.4511 0.844445 79.599 0.925244 79.5979 1.36938C79.5826 7.3971 79.5879 13.4243 79.5842 19.452C79.5842 19.5936 79.637 19.7509 79.4131 20.0055H79.4126Z" fill="#67666E"/>
<path d="M0.800202 18.4856C1.8601 15.853 2.88355 13.3118 3.90701 10.7711C5.00863 8.03505 6.11975 5.30266 7.20129 2.55866C7.35339 2.17314 7.54456 2.05907 7.9438 2.06752C9.21282 2.0934 10.4829 2.08759 11.7519 2.06964C12.0646 2.06541 12.2124 2.16258 12.3408 2.45304C14.6348 7.64531 16.9405 12.8323 19.2515 18.0167C19.4014 18.3525 19.4426 18.5073 18.9689 18.4956C17.795 18.4666 16.6194 18.4735 15.4449 18.4941C15.1244 18.4999 14.977 18.389 14.8635 18.099C14.5334 17.2536 14.1601 16.425 13.8321 15.5789C13.7265 15.3059 13.5924 15.2109 13.2982 15.2124C11.1193 15.2251 8.9398 15.2251 6.76086 15.2124C6.46248 15.2109 6.32993 15.3096 6.23223 15.5858C5.9291 16.4403 5.58478 17.2805 5.28007 18.1344C5.19029 18.3858 5.07886 18.4951 4.79897 18.4925C3.49298 18.4787 2.18699 18.4867 0.800202 18.4867V18.4856ZM7.46798 12.3322H12.4654C11.5956 10.2367 10.7443 8.18556 9.8476 6.02404C9.03697 8.17235 8.26594 10.2177 7.46798 12.3322Z" fill="#86858C"/>
<path d="M72.9285 14.0728C72.0973 14.9568 71.3865 15.7152 70.673 16.4709C69.8149 17.3798 68.9482 18.2807 68.1001 19.1991C67.8773 19.4404 67.6481 19.5476 67.3143 19.5455C65.1734 19.5318 63.033 19.5281 60.8921 19.5471C60.4812 19.5508 60.3365 19.4589 60.3413 19.0169C60.3645 16.801 60.3529 14.584 60.3524 12.3681C60.3524 12.1394 60.3524 11.9277 60.5509 11.7481C62.2488 10.2098 63.9398 8.66296 65.6344 7.12038C65.6561 7.10084 65.702 7.1077 65.7496 7.10031C65.8615 7.29043 65.8039 7.50061 65.8045 7.69865C65.8103 9.63096 65.824 11.5633 65.796 13.4951C65.7892 13.9814 65.9455 14.0887 66.4044 14.0828C68.3177 14.058 70.231 14.0728 72.1443 14.0728C72.3476 14.0728 72.5515 14.0728 72.9285 14.0728Z" fill="#67666E"/>
<path d="M6.82846 27.6001C7.32117 27.1528 7.78907 27.0435 8.29182 27.0371C9.50328 27.0223 10.1006 27.5151 10.1882 28.7255C10.259 29.7051 10.2231 30.6921 10.2468 31.6754C10.2579 32.1497 9.9115 31.968 9.68653 31.9949C9.42935 32.0255 9.20966 32.0292 9.22233 31.6385C9.24926 30.8257 9.24081 30.0109 9.22761 29.1971C9.20966 28.0738 8.50253 27.6032 7.43894 27.994C7.00009 28.1551 6.86067 28.5121 6.85381 28.9378C6.83955 29.8081 6.80628 30.68 6.83955 31.5487C6.8575 32.0208 6.61458 31.9944 6.28557 32.0086C5.9122 32.025 5.80975 31.9041 5.81398 31.5291C5.83405 29.5989 5.8351 27.6682 5.81398 25.738C5.80975 25.3525 5.92593 25.2516 6.29085 25.2664C6.6188 25.2801 6.87546 25.2516 6.83902 25.7259C6.79466 26.3036 6.82846 26.8871 6.82846 27.5995V27.6001Z" fill="#86858C"/>
<path d="M40.7071 29.9792C40.2339 29.9786 39.7597 29.9961 39.2876 29.9728C38.9374 29.9554 38.9242 30.0953 39.0087 30.3752C39.1566 30.8637 39.4734 31.16 39.9672 31.2218C40.4848 31.2862 41.0107 31.2825 41.307 30.7333C41.5753 30.2364 42.0099 30.5405 42.3669 30.5057C42.5047 30.4925 42.4424 30.6831 42.4171 30.7829C42.2977 31.2498 42.0305 31.6115 41.5837 31.7974C40.7435 32.1465 39.8885 32.1465 39.0457 31.8037C38.8577 31.7277 38.6818 31.5973 38.5318 31.4584C37.8627 30.8379 37.6673 29.2805 38.1157 28.2523C38.4701 27.4401 39.3631 26.9806 40.4304 27.0619C41.8098 27.167 42.688 28.3267 42.4709 29.7262C42.4329 29.9734 42.3072 29.9823 42.1266 29.9813C41.6534 29.9792 41.1803 29.9807 40.7071 29.9797V29.9792ZM40.1542 29.1553C40.4367 29.1553 40.7219 29.1337 41.0018 29.1606C41.4169 29.2002 41.4258 28.9932 41.3461 28.6827C41.2083 28.1482 40.8312 27.9 40.321 27.8652C39.8062 27.8303 39.3441 27.9639 39.1027 28.4926C38.8408 29.0666 38.8968 29.1532 39.5315 29.1548C39.7391 29.1548 39.9461 29.1548 40.1536 29.1553H40.1542Z" fill="#86858C"/>
<path d="M13.7687 29.9786C13.295 29.9792 12.8208 29.9887 12.3476 29.9755C12.0741 29.9675 11.9716 30.0288 12.0566 30.3309C12.1939 30.8199 12.4828 31.141 12.9813 31.2139C13.4973 31.2894 14.0518 31.3153 14.337 30.7655C14.6058 30.2469 15.032 30.5337 15.3847 30.4951C15.5696 30.4751 15.503 30.691 15.4708 30.8078C15.3293 31.3168 15.0071 31.6791 14.5107 31.8529C13.7349 32.1243 12.9475 32.1386 12.177 31.8323C11.237 31.4578 10.8272 30.5141 10.9619 29.0893C11.0649 28.0046 11.6453 27.3255 12.6291 27.1385C14.4838 26.7863 15.5822 27.7326 15.5199 29.6053C15.5099 29.9042 15.4307 29.9998 15.1328 29.9839C14.6792 29.9602 14.2234 29.9776 13.7687 29.9781V29.9786ZM13.2132 29.1548C13.5142 29.1548 13.8163 29.14 14.1162 29.1585C14.45 29.1791 14.4917 29.0333 14.4231 28.7482C14.29 28.1952 13.9335 27.9095 13.389 27.8684C12.8704 27.8287 12.4147 27.9581 12.1686 28.4825C11.8977 29.0608 11.9568 29.1548 12.5916 29.1553C12.7986 29.1553 13.0056 29.1553 13.2127 29.1543L13.2132 29.1548Z" fill="#86858C"/>
<path d="M64.686 32.052C64.2154 32.063 63.7866 32.0129 63.3773 31.8375C62.9311 31.6469 62.6116 31.3311 62.5086 30.8569C62.4643 30.6514 62.2255 30.2955 62.5519 30.2327C62.8429 30.1761 63.3097 29.9248 63.4866 30.5617C63.6889 31.2889 65.2463 31.5244 65.7179 30.935C65.9719 30.6182 65.851 30.3657 65.5219 30.202C65.1444 30.014 64.7187 29.9913 64.3163 29.8883C63.9688 29.7996 63.6139 29.7267 63.2802 29.6C62.8228 29.4257 62.5213 29.0957 62.5081 28.5792C62.4949 28.0664 62.6919 27.6323 63.1576 27.4026C64.0538 26.9611 64.9833 26.9463 65.9027 27.3376C66.266 27.4923 66.5179 27.7849 66.6162 28.1752C66.6743 28.4065 66.8876 28.7577 66.5713 28.8469C66.2924 28.9251 65.8504 29.0877 65.6846 28.5031C65.4966 27.8419 64.0781 27.6413 63.6488 28.181C63.3905 28.5052 63.5189 28.7677 63.8711 28.8865C64.2635 29.0191 64.6743 29.0967 65.0799 29.1875C65.4491 29.2705 65.8203 29.3481 66.1578 29.5261C67.0159 29.9792 67.1004 31.0333 66.3268 31.6279C65.8319 32.0081 65.2547 32.0731 64.687 32.052H64.686Z" fill="#86858C"/>
<path d="M49.2491 32.0562C48.9465 32.0652 48.5705 32.0314 48.2061 31.9146C47.5729 31.7119 47.1753 31.2952 47.0828 30.625C47.0612 30.4687 46.9028 30.1888 47.2365 30.2099C47.509 30.2274 47.8834 29.9823 48.0524 30.4032C48.3751 31.2065 49.4968 31.5476 50.2182 31.0507C50.5884 30.7956 50.5672 30.4212 50.1558 30.2084C49.7651 30.0066 49.3209 29.9876 48.9021 29.8804C48.5557 29.7917 48.204 29.7098 47.8729 29.5783C47.4388 29.4067 47.1589 29.0888 47.1425 28.5934C47.1261 28.1028 47.2904 27.6788 47.7282 27.4432C48.693 26.9246 49.6869 26.94 50.6644 27.4121C50.9607 27.5552 51.1635 27.8272 51.2384 28.1551C51.2918 28.3885 51.5247 28.6668 51.2289 28.8633C50.9564 29.0439 50.4643 28.8015 50.3233 28.4662C50.0698 27.8647 48.7268 27.6497 48.2959 28.1578C48.0487 28.4487 48.0904 28.7397 48.4744 28.8707C48.8652 29.0043 49.2771 29.0761 49.6769 29.1849C50.0222 29.2784 50.375 29.3581 50.704 29.4933C51.1497 29.676 51.4571 29.9929 51.4793 30.5147C51.502 31.0607 51.2601 31.46 50.8043 31.7393C50.4384 31.9632 49.9715 32.0604 49.2496 32.0572L49.2491 32.0562Z" fill="#86858C"/>
<path d="M71.6606 32.0472C70.0868 32.0393 69.3058 31.1912 69.3232 29.5086C69.3396 27.9064 70.1602 27.0746 71.7271 27.0714C73.2771 27.0683 74.1067 27.9528 74.0993 29.6016C74.0925 31.2339 73.2729 32.0551 71.6606 32.0472ZM73.0674 29.3798C73.0511 29.281 73.0299 29.0149 72.9613 28.7624C72.806 28.1921 72.3941 27.9301 71.7071 27.9317C71.02 27.9338 70.6245 28.2 70.4586 28.7756C70.3023 29.3175 70.3139 29.863 70.4697 30.399C70.5817 30.7845 70.8346 31.0406 71.2423 31.1494C72.3783 31.452 73.0706 30.8495 73.0669 29.3798H73.0674Z" fill="#86858C"/>
<path d="M25.0326 31.424C24.3466 32.0879 23.5095 32.1481 22.6477 31.9854C21.8962 31.8439 21.4827 31.3475 21.4357 30.4819C21.3808 29.4622 21.4077 28.4376 21.4029 27.4152C21.4008 26.922 21.7784 27.1892 21.986 27.1438C22.2289 27.091 22.4169 27.1274 22.4074 27.4765C22.3852 28.3093 22.391 29.1432 22.4032 29.976C22.4169 30.8796 22.691 31.1611 23.5338 31.1785C24.3878 31.1964 24.7516 30.887 24.7939 30.0119C24.8329 29.1997 24.8366 28.3822 24.797 27.57C24.7764 27.1443 24.9607 27.1269 25.2903 27.1264C25.6351 27.1258 25.84 27.1375 25.83 27.5922C25.801 28.8791 25.8348 30.1672 25.8252 31.4547C25.8237 31.6427 25.9831 31.9342 25.6093 31.996C25.275 32.0514 25.1804 31.8513 25.1329 31.5814C25.1239 31.5307 25.0748 31.4874 25.032 31.423L25.0326 31.424Z" fill="#86858C"/>
<path d="M75.6366 27.7236C76.3031 27.0936 77.0514 26.9838 77.851 27.1042C78.6938 27.2309 79.1084 27.6576 79.2325 28.5147C79.3856 29.5709 79.2795 30.6351 79.3069 31.695C79.3191 32.1713 78.9494 31.9622 78.7302 31.9933C78.5058 32.025 78.2787 32.0472 78.2882 31.6775C78.3088 30.8632 78.2946 30.0473 78.2946 29.2324C78.2946 28.0432 77.7464 27.787 76.6173 27.9856C76.0929 28.078 75.9144 28.5179 75.9102 29.0159C75.9028 29.8688 75.879 30.7233 75.9149 31.5746C75.934 32.0224 75.6947 31.9991 75.3905 32.0044C75.0753 32.0102 74.8661 32.0087 74.8772 31.5719C74.9089 30.3029 74.8783 29.0318 74.8989 27.7622C74.9021 27.5605 74.7072 27.2494 75.0668 27.1501C75.5136 27.0266 75.5057 27.4258 75.6377 27.7242L75.6366 27.7236Z" fill="#86858C"/>
<path d="M60.9423 31.405C60.2489 32.0889 59.4155 32.1333 58.5494 31.9886C57.8957 31.8793 57.5043 31.4568 57.3834 30.8241C57.1642 29.6803 57.2852 28.5195 57.2926 27.3672C57.2957 26.9077 57.7404 27.214 57.9728 27.1427C58.2062 27.0714 58.2965 27.194 58.2923 27.4459C58.278 28.2787 58.2822 29.1126 58.2886 29.9459C58.2954 30.8653 58.5949 31.1785 59.4493 31.1806C60.3307 31.1827 60.6703 30.8479 60.6819 29.9359C60.6919 29.1405 60.7147 28.3431 60.6708 27.5504C60.6455 27.0899 60.8926 27.1269 61.1894 27.1338C61.4683 27.1401 61.7291 27.0561 61.7149 27.5367C61.6774 28.8422 61.7149 30.1497 61.698 31.4563C61.6959 31.6337 61.886 31.9315 61.501 31.9991C61.1588 32.0593 61.0859 31.8333 61.0225 31.583C61.0104 31.5355 60.9824 31.4927 60.9428 31.405H60.9423Z" fill="#86858C"/>
<path d="M33.5223 31.3723C33.1753 31.7499 32.8041 31.922 32.3874 32.0055C30.7635 32.3308 29.8916 31.6453 29.8594 29.9998C29.843 29.1664 29.8768 28.3315 29.8457 27.4987C29.8288 27.0493 30.1071 27.1332 30.36 27.138C30.6019 27.1422 30.8934 27.026 30.876 27.4871C30.8438 28.3389 30.8565 29.1923 30.8681 30.0452C30.8792 30.888 31.2045 31.1869 32.0674 31.1859C32.8616 31.1848 33.2345 30.85 33.254 30.0658C33.2751 29.2134 33.2868 28.359 33.2519 27.5077C33.2308 27.0023 33.5561 27.157 33.808 27.138C34.0847 27.1169 34.3018 27.0936 34.2923 27.5203C34.2627 28.8464 34.2912 30.1735 34.2796 31.5001C34.278 31.6691 34.4322 31.9342 34.0911 31.9986C33.761 32.0609 33.6591 31.864 33.6031 31.5994C33.592 31.5481 33.5688 31.4996 33.5234 31.3728L33.5223 31.3723Z" fill="#86858C"/>
<path d="M19.5979 30.0114C19.5979 30.5421 19.571 31.0744 19.6063 31.6031C19.6338 32.0166 19.4094 32.0108 19.1189 32.0039C18.8411 31.9976 18.6051 32.0314 18.6151 31.6089C18.642 30.5289 18.6188 29.4484 18.6288 28.3679C18.6315 28.0981 18.5892 27.9249 18.2629 27.9597C18.124 27.9745 17.9339 28.0141 17.937 27.7691C17.9397 27.5673 17.8837 27.326 18.1847 27.279C18.5222 27.2262 18.6283 27.0524 18.6362 26.7007C18.66 25.615 19.6153 24.949 20.6868 25.2236C21.0481 25.316 20.8331 25.5954 20.878 25.7845C20.9224 25.9714 20.8553 26.104 20.6092 26.0976C20.3853 26.0918 20.1498 26.1071 19.9369 26.1716C19.5604 26.2862 19.5794 26.6183 19.6016 26.9257C19.6275 27.2837 19.9121 27.0942 20.0827 27.1301C20.21 27.1565 20.3504 27.1538 20.4788 27.1311C20.877 27.0598 20.8754 27.2885 20.8933 27.5885C20.915 27.9513 20.747 27.9703 20.4613 27.9703C19.5974 27.9703 19.5974 27.9808 19.5974 28.8739C19.5974 29.253 19.5974 29.6322 19.5974 30.0109L19.5979 30.0114Z" fill="#86858C"/>
<path d="M3.53417 29.374C3.53417 30.0938 3.50671 30.8157 3.54473 31.5334C3.5685 31.9849 3.34828 32.005 3.00132 32.0086C2.657 32.0123 2.50279 31.9548 2.51019 31.5497C2.53712 30.1101 2.50808 28.6695 2.52973 27.2299C2.53501 26.8724 2.43203 26.7562 2.08507 26.7942C1.84161 26.8206 1.5876 26.7662 1.34784 26.8063C0.821326 26.8945 0.753729 26.6247 0.793337 26.199C0.813404 25.983 0.87572 25.9102 1.09752 25.9117C2.38608 25.9212 3.67465 25.9265 4.96321 25.9107C5.35717 25.9059 5.25155 26.1626 5.25947 26.368C5.26792 26.5888 5.32284 26.856 4.94473 26.8005C4.92624 26.7979 4.9067 26.7984 4.88769 26.8005C4.44198 26.8454 3.83044 26.5904 3.59332 26.9093C3.37416 27.2045 3.53681 27.7839 3.53417 28.238C3.53206 28.6172 3.53417 28.9958 3.53417 29.375V29.374Z" fill="#86858C"/>
<path d="M54.5243 29.9654C54.5243 29.4352 54.5164 28.905 54.5274 28.3748C54.5327 28.1203 54.5201 27.9206 54.1778 27.9587C54.0199 27.9761 53.8261 28.0131 53.8346 27.73C53.8414 27.5108 53.8282 27.2985 54.1161 27.2653C54.4841 27.223 54.529 26.9959 54.5322 26.6722C54.5422 25.6186 55.5794 24.9121 56.6066 25.2257C56.9197 25.3213 56.7597 25.5648 56.7877 25.7443C56.8146 25.9165 56.8062 26.0892 56.5469 26.0929C56.3209 26.0961 56.0875 26.0982 55.8715 26.1547C55.505 26.2513 55.468 26.5618 55.477 26.8803C55.4886 27.2779 55.7944 27.0989 55.9839 27.129C56.1318 27.1522 56.2881 27.1496 56.4371 27.1301C56.7661 27.0868 56.7972 27.2631 56.7993 27.5314C56.8014 27.8182 56.7708 27.9687 56.4138 27.9729C55.4749 27.9829 55.4754 28.0035 55.4749 28.9277C55.4749 29.8176 55.4506 30.7085 55.4844 31.5973C55.4997 32.0055 55.3027 32.0113 55.0059 32.0023C54.7313 31.9939 54.4857 32.0372 54.5153 31.611C54.5533 31.0644 54.5243 30.5136 54.5243 29.9644V29.9654Z" fill="#86858C"/>
<path d="M27.0283 29.4933C27.0283 29.1717 27.0219 28.8501 27.0298 28.529C27.0383 28.2011 27.0879 27.8604 26.5672 27.9476C26.4014 27.9756 26.3349 27.8551 26.3401 27.6988C26.346 27.5341 26.299 27.3012 26.5239 27.2816C27.1312 27.2288 27.0605 26.7947 27.0182 26.4145C26.9681 25.964 27.155 25.8933 27.5595 25.889C27.9699 25.8848 28.0628 26.0142 28.048 26.3997C28.0216 27.1153 28.0448 27.1295 28.8116 27.1179C29.1433 27.1132 29.3118 27.1475 29.3086 27.5621C29.3054 27.9713 29.1106 27.9571 28.8254 27.9565C28.0665 27.9539 28.067 27.9613 28.0676 28.7498C28.0676 29.2789 28.0644 29.8086 28.0676 30.3377C28.0723 31.038 28.1668 31.1716 28.8808 31.1975C29.251 31.2107 29.2964 31.3406 29.3023 31.6627C29.3086 32.0234 29.1417 32.0609 28.8576 32.044C28.556 32.0266 28.2561 32.0292 27.9598 31.9437C27.4307 31.7911 27.1006 31.4647 27.0689 30.907C27.0425 30.437 27.0636 29.9644 27.0636 29.4928C27.0515 29.4928 27.0393 29.4928 27.0272 29.4928L27.0283 29.4933Z" fill="#86858C"/>
<path d="M36.0302 27.7141C36.383 27.2684 36.8631 27.1306 37.3843 27.0767C37.6182 27.0524 37.7788 27.1184 37.7149 27.3756C37.6631 27.5832 37.9478 27.9159 37.4672 27.9835C36.4427 28.1282 36.2705 28.3394 36.2594 29.375C36.2515 30.1128 36.2272 30.8521 36.2695 31.5872C36.2964 32.0583 36.0228 31.9844 35.7371 32.0039C35.3897 32.0282 35.236 31.9479 35.2439 31.5466C35.2703 30.2231 35.2497 28.8992 35.2603 27.5753C35.2613 27.42 35.1282 27.1781 35.4472 27.1332C35.7313 27.0931 35.8676 27.2172 35.9151 27.485C35.9278 27.5552 35.9806 27.6186 36.0297 27.7136L36.0302 27.7141Z" fill="#86858C"/>
<path d="M67.553 29.5657C67.553 28.8665 67.5731 28.1667 67.5451 27.4691C67.5282 27.0503 67.7938 27.1179 68.0241 27.1417C68.239 27.1639 68.5749 26.9653 68.5686 27.4554C68.5495 28.8533 68.548 30.2517 68.5701 31.649C68.5775 32.1111 68.2807 31.9812 68.041 31.9976C67.759 32.0171 67.525 32.0234 67.5446 31.6057C67.5768 30.9271 67.553 30.2459 67.5525 29.5657H67.553Z" fill="#86858C"/>
<path d="M46.3472 29.6211C46.3472 30.3024 46.3287 30.9841 46.3541 31.6649C46.3699 32.0831 46.0985 32.0034 45.8682 31.9949C45.6332 31.9859 45.3216 32.1211 45.328 31.6559C45.3459 30.2559 45.3438 28.8554 45.3285 27.4548C45.3232 26.9722 45.6612 27.1591 45.8803 27.1412C46.1032 27.1227 46.3752 27.0361 46.3562 27.4644C46.324 28.182 46.3472 28.9024 46.3472 29.6211Z" fill="#86858C"/>
<path d="M68.0399 26.583C67.6254 26.5877 67.3323 26.4478 67.3286 25.9762C67.3244 25.4671 67.6555 25.3403 68.079 25.3425C68.52 25.3446 68.8009 25.5093 68.7798 26.0163C68.7587 26.5212 68.4281 26.5798 68.0399 26.583Z" fill="#86858C"/>
<path d="M45.8761 26.5835C45.4441 26.5956 45.1109 26.4657 45.1104 25.9656C45.1099 25.5067 45.4088 25.3467 45.8223 25.3451C46.2432 25.3435 46.578 25.4497 46.5769 25.9682C46.5764 26.4441 46.2912 26.5851 45.8767 26.5835H45.8761Z" fill="#86858C"/>
</svg>
