<svg width="1440" height="697" viewBox="0 0 1440 697" fill="none" xmlns="http://www.w3.org/2000/svg">
<g clip-path="url(#clip0_37_2283)">
<g filter="url(#filter0_f_37_2283)">
<g clip-path="url(#clip1_37_2283)">
<g clip-path="url(#clip2_37_2283)">
<path d="M1368.46 36.192C1357.55 275.884 1062.54 470.192 709.527 470.192C356.513 470.192 79.1769 275.884 90.0819 36.192C100.986 -203.5 396.003 -397.808 749.018 -397.808C1102.03 -397.808 1379.37 -203.5 1368.46 36.192Z" fill="url(#paint0_linear_37_2283)"/>
</g>
</g>
</g>
<g opacity="0.5" filter="url(#filter1_f_37_2283)">
<g clip-path="url(#clip3_37_2283)">
<g clip-path="url(#clip4_37_2283)">
<path d="M172.584 -100.564H1347.4L1299.23 -44.86C1001.41 299.535 518.564 299.535 220.752 -44.86L172.584 -100.564Z" fill="#A82EFF"/>
</g>
</g>
</g>
<g opacity="0.8" filter="url(#filter2_f_37_2283)">
<g clip-path="url(#clip5_37_2283)">
<g clip-path="url(#clip6_37_2283)">
<path d="M305 -52.903H1135L850.007 88.43C775.669 125.295 665.008 125.322 590.614 88.493L305 -52.903Z" fill="#A585FF" fill-opacity="0.8"/>
<path d="M305 -52.903H1135L850.007 88.43C775.669 125.295 665.008 125.322 590.614 88.493L305 -52.903Z" fill="url(#paint1_radial_37_2283)"/>
</g>
</g>
</g>
<g filter="url(#filter3_f_37_2283)">
<g clip-path="url(#clip7_37_2283)">
<g clip-path="url(#clip8_37_2283)">
<path d="M479 -115.217H961L890.738 -7.51404C812.232 112.827 628.071 112.895 549.466 -7.38804L479 -115.217Z" fill="white" fill-opacity="0.9"/>
</g>
</g>
</g>
<path d="M783.301 248.745C783.301 283.677 755.137 311.99 720.4 311.99C685.664 311.99 657.5 283.677 657.5 248.745C657.5 213.813 685.664 185.5 720.4 185.5C755.137 185.5 783.301 213.813 783.301 248.745Z" stroke="white" stroke-opacity="0.04"/>
<path d="M810.053 248.621C810.053 298.395 769.857 338.742 720.276 338.742C670.696 338.742 630.5 298.395 630.5 248.621C630.5 198.847 670.696 158.5 720.276 158.5C769.857 158.5 810.053 198.847 810.053 248.621Z" stroke="white" stroke-opacity="0.04"/>
<path d="M834.292 248.741C834.292 311.836 783.298 362.981 720.396 362.981C657.494 362.981 606.5 311.836 606.5 248.741C606.5 185.646 657.494 134.5 720.396 134.5C783.298 134.5 834.292 185.646 834.292 248.741Z" stroke="white" stroke-opacity="0.04"/>
<circle cx="720.684" cy="248.684" r="143.184" stroke="white" stroke-opacity="0.04"/>
<circle cx="720.25" cy="248.25" r="170.75" stroke="white" stroke-opacity="0.04"/>
<circle cx="720.126" cy="248.126" r="197.626" stroke="white" stroke-opacity="0.04"/>
<circle cx="720.759" cy="248.759" r="227.259" stroke="white" stroke-opacity="0.04"/>
<circle cx="720.5" cy="248.5" r="250" stroke="white" stroke-opacity="0.04"/>
<path fill-rule="evenodd" clip-rule="evenodd" d="M995 -2213.45C995 -2061.88 872.125 -1939 720.55 -1939C568.975 -1939 446.1 -2061.88 446.1 -2213.45C446.1 -2365.02 568.975 -2487.9 720.55 -2487.9C872.125 -2487.9 995 -2365.02 995 -2213.45ZM996.1 -2213.45C996.1 -2061.27 872.732 -1937.9 720.55 -1937.9C568.368 -1937.9 445 -2061.27 445 -2213.45C445 -2365.63 568.368 -2489 720.55 -2489C872.732 -2489 996.1 -2365.63 996.1 -2213.45ZM720.5 498C858.295 498 970 386.295 970 248.5C970 110.705 858.295 -1 720.5 -1C582.705 -1 471 110.705 471 248.5C471 386.295 582.705 498 720.5 498ZM720.5 499C858.847 499 971 386.847 971 248.5C971 110.153 858.847 -2 720.5 -2C582.153 -2 470 110.153 470 248.5C470 386.847 582.153 499 720.5 499ZM947.517 248.759C947.517 373.994 845.994 475.517 720.759 475.517C595.523 475.517 494 373.994 494 248.759C494 123.523 595.523 22 720.759 22C845.994 22 947.517 123.523 947.517 248.759ZM948.517 248.759C948.517 374.546 846.546 476.517 720.759 476.517C594.971 476.517 493 374.546 493 248.759C493 122.971 594.971 21 720.759 21C846.546 21 948.517 122.971 948.517 248.759ZM720.126 445.252C828.995 445.252 917.252 356.995 917.252 248.126C917.252 139.256 828.995 51 720.126 51C611.256 51 523 139.256 523 248.126C523 356.995 611.256 445.252 720.126 445.252ZM720.126 446.252C829.548 446.252 918.252 357.548 918.252 248.126C918.252 138.704 829.548 50 720.126 50C610.704 50 522 138.704 522 248.126C522 357.548 610.704 446.252 720.126 446.252ZM890.499 248.25C890.499 342.276 814.276 418.499 720.25 418.499C626.223 418.499 550 342.276 550 248.25C550 154.223 626.223 78 720.25 78C814.276 78 890.499 154.223 890.499 248.25ZM891.499 248.25C891.499 342.828 814.828 419.499 720.25 419.499C625.671 419.499 549 342.828 549 248.25C549 153.671 625.671 77 720.25 77C814.828 77 891.499 153.671 891.499 248.25ZM720.684 391.369C799.487 391.369 863.369 327.487 863.369 248.684C863.369 169.882 799.487 106 720.684 106C641.882 106 578 169.882 578 248.684C578 327.487 641.882 391.369 720.684 391.369ZM720.684 392.369C800.039 392.369 864.369 328.039 864.369 248.684C864.369 169.33 800.039 105 720.684 105C641.33 105 577 169.33 577 248.684C577 328.039 641.33 392.369 720.684 392.369ZM833.792 248.741C833.792 311.561 783.02 362.481 720.396 362.481C657.772 362.481 607 311.561 607 248.741C607 185.921 657.772 135 720.396 135C783.02 135 833.792 185.921 833.792 248.741ZM834.792 248.741C834.792 312.11 783.575 363.481 720.396 363.481C657.217 363.481 606 312.11 606 248.741C606 185.371 657.217 134 720.396 134C783.575 134 834.792 185.371 834.792 248.741ZM720.276 338.242C769.579 338.242 809.553 298.121 809.553 248.621C809.553 199.121 769.579 159 720.276 159C670.974 159 631 199.121 631 248.621C631 298.121 670.974 338.242 720.276 338.242ZM720.276 339.242C770.135 339.242 810.553 298.67 810.553 248.621C810.553 198.572 770.135 158 720.276 158C670.418 158 630 198.572 630 248.621C630 298.67 670.418 339.242 720.276 339.242ZM720.4 311.49C754.858 311.49 782.801 283.403 782.801 248.745C782.801 214.087 754.858 186 720.4 186C685.943 186 658 214.087 658 248.745C658 283.403 685.943 311.49 720.4 311.49ZM720.4 312.49C755.415 312.49 783.801 283.95 783.801 248.745C783.801 213.54 755.415 185 720.4 185C685.385 185 657 213.54 657 248.745C657 283.95 685.385 312.49 720.4 312.49Z" fill="url(#paint2_angular_37_2283)" fill-opacity="0.24"/>
<g filter="url(#filter4_dd_37_2283)">
<rect x="686" y="213" width="68" height="68" rx="34" fill="url(#paint3_radial_37_2283)" shape-rendering="crispEdges"/>
<g clip-path="url(#clip9_37_2283)">
<path d="M700.109 253.823C699.125 257.111 700.929 260.594 704.139 261.602C707.349 262.61 710.749 260.761 711.733 257.473C712.717 254.185 710.912 250.702 707.702 249.694C704.492 248.686 701.092 250.535 700.109 253.823Z" fill="url(#paint4_linear_37_2283)"/>
<path d="M733.716 251.497C732.093 251.052 730.802 249.974 730.024 248.594L728.76 246.35L731.636 235.353C732.505 232.032 735.839 230.059 739.082 230.949C740.704 231.395 741.995 232.472 742.772 233.852C743.55 235.232 743.814 236.917 743.38 238.577L741.072 247.401C740.084 250.536 736.857 252.36 733.716 251.497Z" fill="url(#paint5_linear_37_2283)"/>
<path d="M702.355 245.209C702.37 245.161 702.386 245.113 702.402 245.066L702.392 245.067L702.355 245.209Z" fill="url(#paint6_linear_37_2283)"/>
<path d="M702.404 245.066L702.407 245.053C702.407 245.053 702.404 245.062 702.403 245.067L702.404 245.066Z" fill="url(#paint7_linear_37_2283)"/>
<path d="M741.024 247.543L741.021 247.556C741.021 247.556 741.024 247.548 741.025 247.543L741.024 247.543Z" fill="url(#paint8_linear_37_2283)"/>
<path d="M725.568 265.598C726.362 267.019 727.716 268.082 729.26 268.501C731.802 269.259 734.611 268.021 735.993 265.793C736.309 265.284 736.532 264.72 736.684 264.137L741.02 247.56C739.975 250.599 736.805 252.347 733.716 251.498C732.093 251.053 730.802 249.976 730.024 248.595L728.759 246.352L717.86 227.013C717.067 225.593 715.712 224.529 714.169 224.11C711.627 223.353 708.818 224.59 707.436 226.819C707.119 227.328 706.897 227.892 706.744 228.474L702.408 245.052C703.453 242.013 706.624 240.264 709.713 241.113C711.336 241.559 712.627 242.636 713.405 244.016L725.568 265.598Z" fill="url(#paint9_linear_37_2283)"/>
<path d="M741.072 247.4C741.057 247.448 741.042 247.496 741.026 247.543L741.035 247.542L741.072 247.4Z" fill="url(#paint10_linear_37_2283)"/>
</g>
</g>
</g>
<defs>
<filter id="filter0_f_37_2283" x="-515" y="-401" width="2470" height="1821" filterUnits="userSpaceOnUse" color-interpolation-filters="sRGB">
<feFlood flood-opacity="0" result="BackgroundImageFix"/>
<feBlend mode="normal" in="SourceGraphic" in2="BackgroundImageFix" result="shape"/>
<feGaussianBlur stdDeviation="200" result="effect1_foregroundBlur_37_2283"/>
</filter>
<filter id="filter1_f_37_2283" x="-153.5" y="-239" width="1747" height="753" filterUnits="userSpaceOnUse" color-interpolation-filters="sRGB">
<feFlood flood-opacity="0" result="BackgroundImageFix"/>
<feBlend mode="normal" in="SourceGraphic" in2="BackgroundImageFix" result="shape"/>
<feGaussianBlur stdDeviation="100" result="effect1_foregroundBlur_37_2283"/>
</filter>
<filter id="filter2_f_37_2283" x="205" y="-139" width="1030" height="479" filterUnits="userSpaceOnUse" color-interpolation-filters="sRGB">
<feFlood flood-opacity="0" result="BackgroundImageFix"/>
<feBlend mode="normal" in="SourceGraphic" in2="BackgroundImageFix" result="shape"/>
<feGaussianBlur stdDeviation="50" result="effect1_foregroundBlur_37_2283"/>
</filter>
<filter id="filter3_f_37_2283" x="327" y="-139" width="786" height="422" filterUnits="userSpaceOnUse" color-interpolation-filters="sRGB">
<feFlood flood-opacity="0" result="BackgroundImageFix"/>
<feBlend mode="normal" in="SourceGraphic" in2="BackgroundImageFix" result="shape"/>
<feGaussianBlur stdDeviation="50" result="effect1_foregroundBlur_37_2283"/>
</filter>
<filter id="filter4_dd_37_2283" x="648" y="179" width="144" height="144" filterUnits="userSpaceOnUse" color-interpolation-filters="sRGB">
<feFlood flood-opacity="0" result="BackgroundImageFix"/>
<feColorMatrix in="SourceAlpha" type="matrix" values="0 0 0 0 0 0 0 0 0 0 0 0 0 0 0 0 0 0 127 0" result="hardAlpha"/>
<feOffset dy="4"/>
<feGaussianBlur stdDeviation="19"/>
<feComposite in2="hardAlpha" operator="out"/>
<feColorMatrix type="matrix" values="0 0 0 0 0.811765 0 0 0 0 0.772549 0 0 0 0 0.890196 0 0 0 1 0"/>
<feBlend mode="normal" in2="BackgroundImageFix" result="effect1_dropShadow_37_2283"/>
<feColorMatrix in="SourceAlpha" type="matrix" values="0 0 0 0 0 0 0 0 0 0 0 0 0 0 0 0 0 0 127 0" result="hardAlpha"/>
<feOffset dy="-4"/>
<feGaussianBlur stdDeviation="15"/>
<feComposite in2="hardAlpha" operator="out"/>
<feColorMatrix type="matrix" values="0 0 0 0 0.415686 0 0 0 0 0.32549 0 0 0 0 1 0 0 0 1 0"/>
<feBlend mode="normal" in2="effect1_dropShadow_37_2283" result="effect2_dropShadow_37_2283"/>
<feBlend mode="normal" in="SourceGraphic" in2="effect2_dropShadow_37_2283" result="shape"/>
</filter>
<linearGradient id="paint0_linear_37_2283" x1="89.7709" y1="-396.808" x2="89.7709" y2="-1675.81" gradientUnits="userSpaceOnUse">
<stop stop-color="#3D14AD"/>
<stop offset="1" stop-color="#AA45F7"/>
</linearGradient>
<radialGradient id="paint1_radial_37_2283" cx="0" cy="0" r="1" gradientUnits="userSpaceOnUse" gradientTransform="translate(851.746 -102.487) scale(619.703 126.18)">
<stop stop-color="white"/>
<stop offset="1" stop-color="white" stop-opacity="0"/>
</radialGradient>
<radialGradient id="paint2_angular_37_2283" cx="0" cy="0" r="1" gradientUnits="userSpaceOnUse" gradientTransform="translate(720.55 -995) rotate(90) scale(1368.75 252.45)">
<stop offset="0.12285" stop-color="white" stop-opacity="0"/>
<stop offset="0.251092" stop-color="white"/>
</radialGradient>
<radialGradient id="paint3_radial_37_2283" cx="0" cy="0" r="1" gradientUnits="userSpaceOnUse" gradientTransform="translate(720 213) scale(108.801 85.4998)">
<stop stop-color="#0D1019" stop-opacity="0.9"/>
<stop offset="1" stop-color="#0D1019" stop-opacity="0.1"/>
</radialGradient>
<linearGradient id="paint4_linear_37_2283" x1="710.118" y1="249.136" x2="707.07" y2="262.534" gradientUnits="userSpaceOnUse">
<stop stop-color="#6037FF"/>
<stop offset="1" stop-color="#B27AFF"/>
</linearGradient>
<linearGradient id="paint5_linear_37_2283" x1="737.63" y1="249.999" x2="742.279" y2="233.06" gradientUnits="userSpaceOnUse">
<stop stop-color="#6037FF"/>
<stop offset="1" stop-color="#B27AFF"/>
</linearGradient>
<linearGradient id="paint6_linear_37_2283" x1="720.826" y1="277.87" x2="693.88" y2="232.308" gradientUnits="userSpaceOnUse">
<stop stop-color="#F15A29"/>
<stop offset="0.34" stop-color="#EF4136"/>
<stop offset="0.64" stop-color="#ED1C24"/>
<stop offset="1" stop-color="#BE1E2D"/>
</linearGradient>
<linearGradient id="paint7_linear_37_2283" x1="719.512" y1="275.412" x2="694.56" y2="233.225" gradientUnits="userSpaceOnUse">
<stop stop-color="#F15A29"/>
<stop offset="0.34" stop-color="#EF4136"/>
<stop offset="0.64" stop-color="#ED1C24"/>
<stop offset="1" stop-color="#BE1E2D"/>
</linearGradient>
<linearGradient id="paint8_linear_37_2283" x1="748.211" y1="260.303" x2="723.278" y2="218.146" gradientUnits="userSpaceOnUse">
<stop stop-color="#F15A29"/>
<stop offset="0.34" stop-color="#EF4136"/>
<stop offset="0.64" stop-color="#ED1C24"/>
<stop offset="1" stop-color="#BE1E2D"/>
</linearGradient>
<linearGradient id="paint9_linear_37_2283" x1="709.596" y1="224.753" x2="734.775" y2="267.326" gradientUnits="userSpaceOnUse">
<stop stop-color="#6037FF"/>
<stop offset="1" stop-color="#B27AFF"/>
</linearGradient>
<linearGradient id="paint10_linear_37_2283" x1="748.844" y1="261.301" x2="721.898" y2="215.739" gradientUnits="userSpaceOnUse">
<stop stop-color="#F15A29"/>
<stop offset="0.34" stop-color="#EF4136"/>
<stop offset="0.64" stop-color="#ED1C24"/>
<stop offset="1" stop-color="#BE1E2D"/>
</linearGradient>
<clipPath id="clip0_37_2283">
<rect width="1440" height="697" fill="white"/>
</clipPath>
<clipPath id="clip1_37_2283">
<rect width="1669" height="1021" fill="white" transform="translate(-114.5 -1)"/>
</clipPath>
<clipPath id="clip2_37_2283">
<rect width="1669" height="1021" fill="white" transform="translate(-114.5 -1)"/>
</clipPath>
<clipPath id="clip3_37_2283">
<rect width="1347" height="353" fill="white" transform="translate(46.5 -39)"/>
</clipPath>
<clipPath id="clip4_37_2283">
<rect width="1347" height="353" fill="white" transform="translate(46.5 -39)"/>
</clipPath>
<clipPath id="clip5_37_2283">
<rect width="830" height="279" fill="white" transform="translate(305 -39)"/>
</clipPath>
<clipPath id="clip6_37_2283">
<rect width="830" height="279" fill="white" transform="translate(305 -39)"/>
</clipPath>
<clipPath id="clip7_37_2283">
<rect width="586" height="222" fill="white" transform="translate(427 -39)"/>
</clipPath>
<clipPath id="clip8_37_2283">
<rect width="586" height="222" fill="white" transform="translate(427 -39)"/>
</clipPath>
<clipPath id="clip9_37_2283">
<rect x="693" y="219" width="55" height="55" rx="27.5" fill="white"/>
</clipPath>
</defs>
</svg>
