<svg width="22" height="18" viewBox="0 0 22 18" fill="none" xmlns="http://www.w3.org/2000/svg">
<path d="M17 13.8054C19.2459 13.5824 21 11.6875 21 9.38288C21 6.70998 18.5452 4.60759 15.9198 4.98358C15.9155 4.98419 15.9113 4.982 15.9093 4.97815C14.9052 2.97787 12.8351 1.6051 10.4444 1.6051C7.25974 1.6051 4.64402 4.04119 4.35907 7.15157C4.3586 7.15674 4.35421 7.16073 4.34902 7.16073C2.52707 7.15915 1 8.66566 1 10.494C1 12.3349 2.49238 13.8273 4.33333 13.8273H5" stroke="#9B62FF" stroke-width="1.5" stroke-linecap="round"/>
<path d="M8.5 12.1051L10.6464 9.95866C10.8417 9.76339 11.1583 9.76339 11.3535 9.95866L13.5 12.1051" stroke="#9B62FF" stroke-width="1.5" stroke-linecap="round"/>
<path d="M11 10.6051L11 16.6051" stroke="#9B62FF" stroke-width="1.5" stroke-linecap="round"/>
</svg>
