<svg width="52" height="53" viewBox="0 0 52 53" fill="none" xmlns="http://www.w3.org/2000/svg">
<rect x="0.5" y="0.869995" width="51.0071" height="51.0046" rx="15.5" fill="#6A53FF" fill-opacity="0.15"/>
<rect x="0.5" y="0.869995" width="51.0071" height="51.0046" rx="15.5" stroke="#382999"/>
<path d="M21.2932 26.3645C21.2932 23.7645 23.4132 21.6545 26.0232 21.6645C28.6232 21.6645 30.7332 23.7945 30.7232 26.4045C30.7232 28.9945 28.6032 31.0945 26.0032 31.0945C23.4032 31.0945 21.2932 28.9745 21.2932 26.3745V26.3645Z" fill="white"/>
<path d="M23.2032 21.0345C22.7332 21.3745 22.2832 21.7045 21.8132 22.0445C21.4332 21.5145 21.0432 20.9745 20.6432 20.4345C20.4232 20.1345 20.2532 19.7245 19.9532 19.5645C19.6632 19.4145 19.2432 19.5245 18.8732 19.5245C18.8432 19.5245 18.8232 19.5245 18.7932 19.5245C18.3632 19.4645 18.0732 19.5745 17.7932 19.9845C17.2832 20.7545 16.2532 20.9945 15.3832 20.6645C14.5132 20.3345 13.9532 19.4745 14.0032 18.5245C14.0532 17.6145 14.7332 16.8045 15.6232 16.5845C16.5532 16.3645 17.4932 16.7445 17.9732 17.5645C18.0832 17.7545 18.2032 17.8145 18.4132 17.8145C19.0732 17.8045 19.7332 17.8145 20.3932 17.8145C20.6632 17.8145 20.9132 17.8945 21.0832 18.1145C21.8032 19.0845 22.5132 20.0745 23.2132 21.0445L23.2032 21.0345Z" fill="white"/>
<path d="M21.8232 30.7145C22.2932 31.0545 22.7432 31.3745 23.2032 31.7145C22.5032 32.6745 21.8032 33.6545 21.0932 34.6245C20.9232 34.8545 20.6732 34.9445 20.3932 34.9445C19.7132 34.9445 19.0332 34.9445 18.3632 34.9445C18.1932 34.9445 18.1032 34.9845 18.0132 35.1445C17.4832 36.0845 16.3832 36.4645 15.3832 36.0845C14.3932 35.7045 13.8432 34.6745 14.0732 33.6145C14.2932 32.6045 15.2432 31.8845 16.2932 31.9545C17.0632 32.0045 17.6432 32.3845 18.0232 33.0545C18.1032 33.1945 18.1732 33.2445 18.3332 33.2345C18.8232 33.2345 19.3132 33.2345 19.8032 33.2245C19.9132 33.2245 20.0532 33.1445 20.1232 33.0545C20.6432 32.3545 21.1532 31.6445 21.6632 30.9345C21.7232 30.8545 21.7832 30.7845 21.8332 30.7145H21.8232Z" fill="white"/>
<path d="M30.1932 22.0345C29.7132 21.6945 29.2732 21.3645 28.8132 21.0345C29.0232 20.7445 29.2332 20.4445 29.4532 20.1445C29.9132 19.5045 30.3732 18.8745 30.8332 18.2345C31.0432 17.9445 31.3132 17.8045 31.6732 17.8045C32.3332 17.8045 32.9932 17.8045 33.6532 17.8045C33.8232 17.8045 33.9132 17.7645 34.0032 17.6045C34.5332 16.6645 35.6332 16.2745 36.6332 16.6545C37.6232 17.0345 38.1732 18.0645 37.9532 19.1245C37.7332 20.1345 36.7932 20.8645 35.7332 20.7945C34.9732 20.7445 34.3932 20.3845 34.0132 19.7245C33.9132 19.5545 33.8232 19.5045 33.6432 19.5145C33.1832 19.5245 32.7132 19.5245 32.2532 19.5145C32.0832 19.5145 31.9832 19.5645 31.8832 19.7045C31.3832 20.4145 30.8732 21.1045 30.3632 21.8145C30.3032 21.8945 30.2432 21.9645 30.1932 22.0345Z" fill="white"/>
<path d="M28.8032 31.7145C29.2732 31.3745 29.7132 31.0545 30.1832 30.7145C30.2232 30.7745 30.2832 30.8445 30.3432 30.9145C30.8532 31.6145 31.3632 32.3145 31.8632 33.0245C31.9632 33.1645 32.0732 33.2345 32.2532 33.2345C32.7232 33.2245 33.2032 33.2245 33.6732 33.2345C33.8332 33.2345 33.9232 33.1845 34.0032 33.0445C34.5332 32.1045 35.6332 31.7145 36.6332 32.0945C37.6132 32.4745 38.1732 33.4845 37.9632 34.5345C37.7632 35.5545 36.8332 36.2845 35.7732 36.2345C34.9932 36.1945 34.4032 35.8245 34.0132 35.1445C33.9332 35.0045 33.8432 34.9445 33.6832 34.9545C32.9932 34.9545 32.3132 34.9545 31.6232 34.9545C31.3132 34.9545 31.0632 34.8345 30.8832 34.5845C30.1932 33.6345 29.5032 32.6745 28.8132 31.7245L28.8032 31.7145Z" fill="white"/>
<path d="M26.8632 20.4045H25.1532C25.1532 20.0345 25.1332 19.6445 25.1532 19.2645C25.1832 18.7945 25.1132 18.4545 24.6532 18.1445C23.8832 17.6345 23.6732 16.5845 24.0132 15.7245C24.3632 14.8645 25.2232 14.3145 26.1532 14.3745C27.0632 14.4345 27.8532 15.0945 28.0732 15.9745C28.3032 16.8845 27.9332 17.8545 27.1132 18.3245C26.8932 18.4545 26.8532 18.5845 26.8532 18.8045C26.8632 19.3345 26.8532 19.8745 26.8532 20.3945L26.8632 20.4045Z" fill="white"/>
<path d="M20.0532 25.5145C20.0332 25.8145 20.0032 26.0845 20.0032 26.3645C20.0032 26.6445 20.0332 26.9145 20.0532 27.2145C19.9832 27.2145 19.9232 27.2345 19.8532 27.2345C19.5232 27.2345 19.1932 27.2545 18.8632 27.2345C18.3932 27.1945 18.0732 27.2845 17.7732 27.7345C17.2632 28.4945 16.2232 28.7145 15.3532 28.3745C14.4932 28.0245 13.9532 27.1645 14.0032 26.2245C14.0632 25.3245 14.7232 24.5245 15.6032 24.2945C16.5232 24.0645 17.4832 24.4345 17.9532 25.2545C18.0732 25.4645 18.2132 25.5245 18.4332 25.5145C18.9632 25.5045 19.5032 25.5145 20.0432 25.5145H20.0532Z" fill="white"/>
<path d="M31.9532 27.2345C31.9732 26.9345 32.0032 26.6645 32.0032 26.3845C32.0032 26.1045 31.9732 25.8345 31.9532 25.5345C32.0232 25.5345 32.0832 25.5145 32.1532 25.5145C32.4432 25.5145 32.7432 25.4945 33.0332 25.5145C33.5432 25.5545 33.9232 25.4845 34.2632 24.9845C34.7832 24.2145 35.8432 24.0345 36.7032 24.4045C37.5432 24.7645 38.0732 25.6345 37.9932 26.5545C37.9232 27.4745 37.2332 28.2645 36.3432 28.4645C35.4232 28.6745 34.4932 28.2845 34.0332 27.4745C33.9232 27.2845 33.8032 27.2345 33.5932 27.2345C33.0532 27.2445 32.5132 27.2345 31.9532 27.2345Z" fill="white"/>
<path d="M25.1432 32.3445H26.8532C26.8532 32.8945 26.8532 33.4545 26.8532 34.0145C26.8532 34.1945 26.9032 34.2945 27.0732 34.3845C27.9232 34.8645 28.3232 35.8545 28.0732 36.7945C27.8232 37.7345 26.9732 38.3845 26.0032 38.3745C25.0432 38.3745 24.2032 37.7245 23.9432 36.8045C23.6832 35.8645 24.0832 34.8845 24.9332 34.3945C25.1032 34.2945 25.1632 34.2045 25.1632 34.0045C25.1432 33.4545 25.1632 32.9045 25.1632 32.3545L25.1432 32.3445Z" fill="white"/>
</svg>
