<svg width="24" height="24" viewBox="0 0 24 24" fill="none" xmlns="http://www.w3.org/2000/svg">
<path d="M10.2277 10.3901C9.66934 10.3901 9.22852 10.8901 9.22852 11.5001C9.22852 12.1101 9.67913 12.6101 10.2277 12.6101C10.7861 12.6101 11.2269 12.1101 11.2269 11.5001C11.2367 10.8901 10.7861 10.3901 10.2277 10.3901ZM13.8032 10.3901C13.2449 10.3901 12.804 10.8901 12.804 11.5001C12.804 12.1101 13.2547 12.6101 13.8032 12.6101C14.3616 12.6101 14.8024 12.1101 14.8024 11.5001C14.8024 10.8901 14.3616 10.3901 13.8032 10.3901Z" fill="white"/>
<path d="M19.3984 0.749512H5.12333C3.91954 0.749512 2.93945 1.75001 2.93945 2.98976V17.6928C2.93945 18.9325 3.91954 19.933 5.12333 19.933H17.2039L16.6393 17.9212L18.0029 19.2153L19.2919 20.4333L21.5823 22.4995V2.98976C21.5823 1.75001 20.6022 0.749512 19.3984 0.749512ZM15.2864 14.9523C15.2864 14.9523 14.9029 14.4847 14.5833 14.0714C15.9788 13.669 16.5115 12.7773 16.5115 12.7773C16.0747 13.0709 15.6592 13.2775 15.2864 13.4189C14.7537 13.6473 14.2424 13.7995 13.7417 13.8865C12.719 14.0823 11.7815 14.0279 10.9825 13.8757C10.3753 13.756 9.85329 13.582 9.41652 13.408C9.1715 13.3102 8.90517 13.1905 8.63884 13.0383C8.60688 13.0165 8.57492 13.0057 8.54296 12.9839C8.52166 12.973 8.51101 12.9622 8.50035 12.9513C8.3086 12.8425 8.20207 12.7664 8.20207 12.7664C8.20207 12.7664 8.71341 13.6364 10.0664 14.0497C9.74676 14.4629 9.3526 14.9523 9.3526 14.9523C6.99827 14.8762 6.10341 13.2993 6.10341 13.2993C6.10341 9.79751 7.63745 6.95914 7.63745 6.95914C9.1715 5.78464 10.631 5.81726 10.631 5.81726L10.7375 5.94776C8.81994 6.51326 7.93574 7.37239 7.93574 7.37239C7.93574 7.37239 8.17011 7.24189 8.56427 7.05701C9.70415 6.54589 10.6097 6.40451 10.9825 6.37189C11.0464 6.36101 11.0997 6.35014 11.1636 6.35014C11.8135 6.26314 12.5485 6.24139 13.3155 6.32839C14.3276 6.44801 15.4142 6.75251 16.5221 7.37239C16.5221 7.37239 15.6805 6.55676 13.8695 5.99126L14.0186 5.81726C14.0186 5.81726 15.4781 5.78464 17.0122 6.95914C17.0122 6.95914 18.5462 9.79751 18.5462 13.2993C18.5462 13.2993 17.6407 14.8762 15.2864 14.9523Z" fill="white"/>
</svg>
