<svg width="20" height="24" viewBox="0 0 20 24" fill="none" xmlns="http://www.w3.org/2000/svg">
<path d="M12.5623 0H1.66113C0.743355 0 0 0.737595 0 1.64826V22.3517C0 23.2624 0.743355 24 1.66113 24H18.3389C19.2566 24 20 23.2624 20 22.3517V7.38145C20 3.30476 16.6708 0 12.5623 0ZM3.5036 8.18772H9.32586C9.69684 8.18772 10 8.48853 10 8.85664C10 9.22475 9.69684 9.52555 9.32586 9.52555H3.5036C3.13261 9.52555 2.82946 9.22475 2.82946 8.85664C2.82946 8.48853 3.13261 8.18772 3.5036 8.18772ZM15.9385 18.8588H3.5036C3.13261 18.8588 2.82946 18.558 2.82946 18.1899C2.82946 17.8218 3.13261 17.521 3.5036 17.521H15.9385C16.3095 17.521 16.6127 17.8218 16.6127 18.1899C16.6127 18.558 16.3095 18.8588 15.9385 18.8588ZM15.9385 15.7477H3.5036C3.13261 15.7477 2.82946 15.4469 2.82946 15.0788C2.82946 14.7107 3.13261 14.4099 3.5036 14.4099H15.9385C16.3095 14.4099 16.6127 14.7107 16.6127 15.0788C16.6127 15.4469 16.3095 15.7477 15.9385 15.7477ZM16.6127 11.9677C16.6127 12.3358 16.3095 12.6366 15.9385 12.6366H3.5036C3.13261 12.6366 2.82946 12.3358 2.82946 11.9677C2.82946 11.5996 3.13261 11.2988 3.5036 11.2988H15.9385C16.3095 11.2988 16.6127 11.5996 16.6127 11.9677Z" fill="white"/>
</svg>
