<svg width="133" height="33" viewBox="0 0 133 33" fill="none" xmlns="http://www.w3.org/2000/svg">
<path d="M0.769043 16.6219C0.774852 16.6716 0.809707 16.68 0.834527 16.6483C0.888393 16.5797 0.935394 16.5052 0.980283 16.4302C4.23285 11.0325 7.48541 5.63482 10.738 0.237645C10.7871 0.155789 10.8447 0.0792149 10.8985 0C10.9012 0.140474 10.9064 0.280949 10.9064 0.421423C10.9064 4.13872 10.9064 7.85601 10.9064 11.5738C10.9064 11.7761 10.9012 11.9778 10.8985 12.1801C10.8251 12.2086 10.7506 12.234 10.6788 12.2662C7.89046 13.532 5.10315 14.8005 2.31268 16.0621C1.80253 16.2929 1.3077 16.5623 0.769043 16.7276V16.6219Z" fill="#86858C"/>
<path d="M0.769043 16.7276C1.3077 16.5623 1.80253 16.2929 2.31321 16.0621C5.10368 14.8005 7.89046 13.532 10.6794 12.2662C10.7506 12.234 10.8256 12.2086 10.899 12.1801L10.9181 12.1949C10.9144 12.3179 10.908 12.441 10.908 12.5635C10.9075 15.9576 10.908 19.3511 10.908 22.7452C10.4771 22.563 10.0958 22.2927 9.69551 22.0566C6.71755 20.3012 3.74383 18.54 0.769043 16.7804C0.769043 16.7629 0.769043 16.745 0.769043 16.7276Z" fill="#67666E"/>
<path d="M132.784 23.6435C132.746 23.6626 132.703 23.6747 132.671 23.7016C132.534 23.8215 132.382 23.8701 132.209 23.7914C132.021 23.7059 131.982 23.5432 131.983 23.3541C131.985 22.0872 131.987 20.8203 131.982 19.5534C131.98 18.9382 132.018 18.3214 131.942 17.7077C131.818 16.7175 131.456 15.8456 130.613 15.2547C129.415 14.4139 127.71 14.6928 126.774 15.8646C126.095 16.7128 125.792 17.7093 125.711 18.7702C125.599 20.2452 125.685 21.725 125.665 23.202C125.659 23.6314 125.544 23.8205 125.27 23.8289C124.986 23.8379 124.863 23.6451 124.863 23.1931C124.863 21.5301 124.865 19.8676 124.861 18.2046C124.86 17.5255 124.717 16.8765 124.394 16.275C123.718 15.0149 122.437 14.5053 120.942 14.8998C119.926 15.1681 119.274 15.8366 118.898 16.7962C118.631 17.4769 118.531 18.1893 118.529 18.9155C118.525 20.3408 118.529 21.7656 118.529 23.191C118.529 23.2792 118.534 23.3679 118.523 23.4545C118.492 23.6847 118.357 23.8226 118.126 23.8426C117.925 23.8606 117.752 23.7 117.719 23.473C117.703 23.3689 117.704 23.2623 117.704 23.1572C117.703 20.4037 117.703 17.6496 117.704 14.8961C117.704 14.7646 117.705 14.631 117.728 14.5021C117.767 14.2861 117.962 14.1277 118.158 14.1531C118.391 14.1826 118.522 14.3252 118.525 14.5613C118.531 15.0081 118.527 15.4548 118.58 15.9259C118.647 15.8303 118.714 15.7347 118.781 15.6391C119.895 14.0575 121.93 13.5125 123.57 14.3632C124.369 14.7773 124.913 15.4279 125.273 16.2428C125.303 16.3109 125.304 16.4244 125.396 16.4239C125.483 16.4239 125.496 16.313 125.531 16.2465C126.148 15.1068 127.028 14.2883 128.334 14.039C130.173 13.6883 131.79 14.64 132.463 16.444C132.546 16.6658 132.6 16.8981 132.668 17.1257C132.689 17.1965 132.672 17.2931 132.783 17.3074V23.6425L132.784 23.6435Z" fill="#86858C"/>
<path d="M10.8985 12.1801C10.9012 11.9778 10.9064 11.7761 10.9064 11.5738C10.9064 7.85654 10.9064 4.13924 10.9064 0.421423C10.9064 0.280949 10.9012 0.140474 10.8985 0C11.0094 0.0417199 11.0395 0.152093 11.0923 0.239229C14.3312 5.60578 17.5689 10.9728 20.8051 16.341C20.8669 16.4434 20.9609 16.5364 20.9446 16.6732C20.2844 16.4302 19.6565 16.1128 19.017 15.8224C16.5856 14.7187 14.1543 13.6139 11.7181 12.5197C11.4567 12.4019 11.2122 12.2334 10.917 12.1949L10.898 12.1801H10.8985Z" fill="#67666E"/>
<path d="M10.9181 12.1949C11.2127 12.2334 11.4572 12.4019 11.7192 12.5197C14.1548 13.6144 16.5861 14.7187 19.018 15.8224C19.6576 16.1128 20.285 16.4302 20.9456 16.6732L20.9414 16.6721C20.9604 16.6721 20.9799 16.6716 20.9989 16.671C21.0866 16.8575 20.9071 16.8749 20.8199 16.9272C19.7933 17.5398 18.7624 18.145 17.7332 18.7533C15.5611 20.0371 13.3901 21.322 11.218 22.6053C11.1203 22.6629 11.0268 22.732 10.908 22.7452C10.908 19.3511 10.908 15.9576 10.908 12.5635C10.908 12.4404 10.9144 12.3174 10.9181 12.1949Z" fill="#67666E"/>
<path d="M10.8853 24.6844C11.1779 24.5799 11.4277 24.3956 11.6917 24.2403C14.6697 22.4881 17.645 20.7321 20.6219 18.9778C20.7196 18.9202 20.8247 18.8743 20.9261 18.823C20.9345 18.8315 20.943 18.8399 20.9514 18.8484C20.9065 18.9234 20.8664 19.0021 20.8157 19.0728C17.5864 23.6192 14.3565 28.1651 11.1261 32.7105C11.0665 32.795 11.0237 32.8974 10.9165 32.9402C10.9133 32.8172 10.9075 32.6941 10.9075 32.5711C10.907 30.0552 10.9075 27.5399 10.9064 25.024C10.9064 24.9105 10.8932 24.7969 10.8858 24.6834L10.8853 24.6844Z" fill="#67666E"/>
<path d="M10.8853 24.6844C10.8922 24.798 10.9059 24.9115 10.9059 25.025C10.907 27.5409 10.9064 30.0563 10.907 32.5721C10.907 32.6952 10.9128 32.8182 10.9159 32.9413C10.8256 32.9428 10.8087 32.8599 10.7718 32.8077C7.49439 28.1921 4.21859 23.5749 0.943316 18.9582C0.923248 18.9297 0.906877 18.898 0.888922 18.8679C0.904765 18.8553 0.920607 18.8431 0.93645 18.8304C1.48303 19.1468 2.03226 19.4599 2.57673 19.7805C5.34714 21.4139 8.11649 23.05 10.8858 24.6844H10.8853Z" fill="#86858C"/>
<path d="M94.7559 19.405C93.4801 19.405 92.2042 19.4066 90.9283 19.404C90.7508 19.404 90.6035 19.4156 90.6494 19.6569C90.9288 21.125 91.6402 22.2932 93.0365 22.9301C94.5907 23.6388 96.5441 23.1218 97.604 21.7677C97.6689 21.6848 97.7276 21.5966 97.7941 21.5148C97.9578 21.3125 98.1944 21.2623 98.375 21.388C98.5604 21.5174 98.5973 21.7419 98.4574 21.9726C97.8702 22.9406 96.9977 23.5311 95.9267 23.8358C92.5205 24.8038 90.0706 22.2689 89.805 19.5524C89.626 17.7209 90.2201 16.1551 91.6381 14.9706C93.6369 13.3002 96.5024 13.6915 98.0967 15.8139C98.7653 16.7048 99.1223 17.7109 99.1492 18.8278C99.1592 19.2519 99.0119 19.4029 98.5847 19.404C97.3088 19.4071 96.0329 19.405 94.757 19.4055L94.7559 19.405ZM94.4465 18.5833C95.6078 18.5833 96.7696 18.5838 97.9309 18.5833C98.2673 18.5833 98.2969 18.5511 98.2382 18.2157C98.1368 17.6375 97.9335 17.0967 97.6219 16.5987C96.5372 14.8649 94.4919 14.2529 92.7867 15.1781C91.5926 15.8256 90.9526 16.8855 90.6774 18.1883C90.5982 18.5653 90.6141 18.5838 90.988 18.5838C92.1408 18.5843 93.2936 18.5838 94.446 18.5838L94.4465 18.5833Z" fill="#86858C"/>
<path d="M33.771 19.405C32.5041 19.405 31.2372 19.4098 29.9703 19.4008C29.7268 19.3992 29.655 19.4536 29.6967 19.7145C29.9603 21.3579 31.1379 22.7864 32.6293 23.1133C34.2373 23.4656 35.6262 23.0558 36.6772 21.7234C36.7426 21.6405 36.7997 21.5507 36.871 21.4736C37.0283 21.3035 37.2211 21.2576 37.4149 21.3928C37.6114 21.5296 37.6304 21.7318 37.519 21.9314C37.2438 22.4226 36.8726 22.8324 36.4068 23.1482C33.6908 24.9907 29.9687 23.9868 28.978 20.2991C28.3871 18.099 29.3508 15.6983 31.2129 14.5798C33.2281 13.3694 35.7657 13.9191 37.1878 15.8768C37.8041 16.7254 38.1273 17.6802 38.1965 18.7227C38.2314 19.2471 38.0766 19.404 37.5459 19.405C36.288 19.4066 35.0295 19.405 33.7716 19.4055L33.771 19.405ZM33.4795 18.5828C34.6667 18.5828 35.8533 18.5791 37.0405 18.5859C37.2649 18.5875 37.3352 18.5194 37.2956 18.2923C37.1884 17.6781 36.9819 17.1036 36.6508 16.576C35.7012 15.064 33.9812 14.3838 32.3906 14.9378C30.8348 15.4797 30.0437 16.6774 29.7115 18.2289C29.6365 18.5785 29.6482 18.5817 29.9983 18.5822C31.159 18.5822 32.3193 18.5822 33.48 18.5822L33.4795 18.5828Z" fill="#86858C"/>
<path d="M71.4784 19.405C70.2199 19.405 68.962 19.405 67.7035 19.405C67.3307 19.405 67.3154 19.4256 67.3914 19.8021C67.6095 20.8842 68.1112 21.8052 68.9942 22.4823C70.6329 23.7391 73.0479 23.4022 74.327 21.7545C74.3919 21.6711 74.45 21.5829 74.5176 21.5016C74.675 21.312 74.9031 21.265 75.0795 21.3812C75.2691 21.5053 75.3119 21.7339 75.1761 21.9626C74.6781 22.7975 73.952 23.3636 73.0505 23.6969C69.732 24.9247 67.0714 22.7431 66.5718 19.9284C66.2629 18.1883 66.7191 16.6341 67.9354 15.3524C69.8371 13.3488 72.9275 13.4961 74.6692 15.6423C75.4191 16.5665 75.8278 17.6243 75.8616 18.8183C75.8737 19.2556 75.7264 19.4024 75.2791 19.4029C74.0122 19.4055 72.7453 19.404 71.4779 19.404L71.4784 19.405ZM71.1393 18.5828C72.3186 18.5828 73.4978 18.5838 74.6771 18.5822C74.9665 18.5822 74.9982 18.5447 74.9485 18.2569C74.8587 17.7325 74.6903 17.234 74.4273 16.7703C73.5211 15.1718 71.8375 14.4219 70.1845 14.8908C68.5068 15.3666 67.5625 16.9499 67.3534 18.3272C67.317 18.5659 67.4453 18.5854 67.628 18.5849C68.7983 18.5817 69.9685 18.5833 71.1393 18.5833V18.5828Z" fill="#86858C"/>
<path d="M54.2016 15.9391C54.3854 15.7046 54.5517 15.4701 54.7397 15.2557C56.0399 13.7749 58.2949 13.531 59.762 14.7218C60.7036 15.486 61.191 16.5168 61.2708 17.6987C61.3986 19.5862 61.304 21.4794 61.3162 23.37C61.3183 23.6578 61.1287 23.8484 60.891 23.8447C60.6518 23.841 60.4997 23.6567 60.4997 23.3473C60.4971 21.6674 60.496 19.987 60.4997 18.3071C60.5008 17.8281 60.4379 17.3607 60.2885 16.905C59.6717 15.0228 58.0282 14.3923 56.3145 15.0181C55.1179 15.4554 54.5428 16.4292 54.2639 17.6126C54.1525 18.0869 54.1425 18.5696 54.1467 19.0549C54.1583 20.4797 54.1609 21.9045 54.1662 23.3298C54.1662 23.3911 54.1689 23.4545 54.1551 23.5136C54.1055 23.728 53.9698 23.8558 53.7459 23.8506C53.5204 23.8453 53.392 23.7127 53.364 23.4904C53.354 23.4122 53.3588 23.3325 53.3588 23.2533C53.3588 17.7294 53.3588 12.2049 53.3588 6.68099C53.3588 6.59332 53.353 6.50354 53.3656 6.41746C53.3989 6.19777 53.5272 6.06469 53.7543 6.06417C53.9798 6.06364 54.1134 6.19461 54.1499 6.41271C54.1668 6.51569 54.1583 6.62342 54.1583 6.72852C54.1583 9.69274 54.1583 12.6575 54.1604 15.6217C54.1604 15.7215 54.1287 15.8287 54.2011 15.9391H54.2016Z" fill="#86858C"/>
<path d="M111.384 21.9531C111.096 22.4411 110.766 22.8921 110.331 23.2601C108.676 24.6591 106.224 24.2831 105.071 22.4516C104.58 21.6706 104.346 20.8103 104.337 19.8967C104.321 18.1809 104.331 16.4651 104.333 14.7498C104.333 14.6632 104.34 14.5724 104.366 14.49C104.422 14.3136 104.551 14.2064 104.738 14.2075C104.92 14.2085 105.051 14.3083 105.118 14.4831C105.164 14.6019 105.154 14.7261 105.154 14.8486C105.155 16.5205 105.152 18.192 105.157 19.8639C105.161 20.7902 105.404 21.6452 106.018 22.3545C107.188 23.7059 109.47 23.5754 110.509 22.1089C111.027 21.3764 111.23 20.533 111.346 19.6622C111.524 18.3129 111.427 16.9562 111.45 15.6027C111.456 15.2684 111.443 14.9336 111.457 14.5998C111.466 14.3569 111.642 14.189 111.86 14.1974C112.101 14.2069 112.222 14.3559 112.25 14.5835C112.265 14.7055 112.267 14.829 112.267 14.9521C112.268 17.6882 112.268 20.4248 112.267 23.1609C112.267 23.2485 112.265 23.3367 112.258 23.4244C112.236 23.7212 112.069 23.9034 111.832 23.8933C111.6 23.8833 111.454 23.7059 111.451 23.4128C111.446 23.0167 111.449 22.6211 111.449 22.2251C111.449 22.14 111.449 22.0545 111.449 21.9695C111.427 21.9642 111.405 21.9584 111.383 21.9531H111.384Z" fill="#86858C"/>
<path d="M45.8703 19.3411C45.8703 20.6519 45.8703 21.9626 45.8703 23.2739C45.8703 23.3615 45.8751 23.4508 45.8624 23.5374C45.8318 23.7481 45.7008 23.8759 45.4933 23.8859C45.2725 23.8965 45.1257 23.7724 45.0824 23.5543C45.0618 23.4524 45.0708 23.3441 45.0708 23.2385C45.0708 20.5906 45.0708 17.9422 45.0702 15.2943C45.0702 14.9442 45.0692 14.9431 44.7243 14.9426C44.1698 14.9415 43.6153 14.9447 43.0614 14.941C42.7424 14.9389 42.5813 14.8005 42.585 14.5433C42.5887 14.292 42.7609 14.1446 43.0698 14.142C43.6328 14.1383 44.1962 14.1304 44.7592 14.1451C44.9968 14.1515 45.0792 14.0839 45.0755 13.8362C45.0618 12.9654 45.0702 12.0945 45.0702 11.2232C45.0702 11.144 45.0665 11.0642 45.0761 10.9861C45.104 10.7542 45.2831 10.5963 45.5033 10.6027C45.7193 10.609 45.8682 10.7547 45.874 10.9998C45.884 11.4133 45.8788 11.8268 45.8793 12.2403C45.8793 12.7684 45.892 13.2965 45.874 13.8235C45.865 14.0844 45.958 14.1525 46.2067 14.1457C46.7871 14.1293 47.368 14.1425 47.9489 14.1399C48.1264 14.1393 48.2816 14.1784 48.3841 14.3363C48.562 14.6099 48.3793 14.9325 48.0297 14.9383C47.4139 14.9484 46.7977 14.951 46.1819 14.9378C45.9421 14.9325 45.864 15.0049 45.8656 15.2505C45.8761 16.614 45.8708 17.9776 45.8708 19.3416L45.8703 19.3411Z" fill="#86858C"/>
<path d="M82.0546 16.2501C82.2944 15.8794 82.5759 15.5446 82.8991 15.2462C83.5074 14.6854 84.1987 14.2867 85.0299 14.1636C85.1783 14.1414 85.3288 14.1235 85.4762 14.1531C85.6748 14.1927 85.8194 14.3052 85.8295 14.5212C85.839 14.7287 85.7328 14.875 85.5327 14.9373C85.4244 14.9711 85.3093 14.9838 85.1979 15.0081C83.5053 15.3772 82.5505 16.473 82.1513 18.1101C82.0383 18.5733 81.9939 19.0464 81.9923 19.5228C81.9891 20.7453 81.9913 21.9679 81.9907 23.1904C81.9907 23.2871 81.9992 23.3869 81.977 23.4793C81.9268 23.6921 81.7879 23.8168 81.5624 23.8088C81.3343 23.8009 81.2097 23.6705 81.188 23.445C81.1812 23.3753 81.1833 23.3045 81.1833 23.2343C81.1833 20.411 81.1833 17.5873 81.1833 14.7641C81.1833 14.6938 81.1812 14.6231 81.1885 14.5534C81.2134 14.3184 81.3882 14.1494 81.5999 14.152C81.8165 14.1547 81.9828 14.3215 81.987 14.5676C81.995 15.025 81.9902 15.4823 81.9907 15.9396C81.9907 16.0347 81.9907 16.1303 81.9907 16.2253L82.0552 16.2507L82.0546 16.2501Z" fill="#86858C"/>
<path d="M20.9979 16.671C20.9789 16.671 20.9593 16.6716 20.9403 16.6721C20.9593 16.6721 20.9789 16.6716 20.9979 16.671Z" fill="#433F3E"/>
<path d="M0.888393 18.8679C0.883112 18.8468 0.87836 18.8257 0.873079 18.8046C0.893674 18.813 0.914798 18.822 0.935394 18.8304C0.919551 18.8431 0.903708 18.8553 0.887865 18.8679H0.888393Z" fill="#969390"/>
<path d="M20.9261 18.8236C20.9377 18.8209 20.9493 18.8183 20.9609 18.8157C20.9578 18.8267 20.9546 18.8378 20.9514 18.8489C20.943 18.8405 20.9345 18.832 20.9261 18.8236Z" fill="#433F3E"/>
</svg>
