<svg width="52" height="53" viewBox="0 0 52 53" fill="none" xmlns="http://www.w3.org/2000/svg">
<rect x="0.5" y="0.874573" width="51.0011" height="51" rx="15.5" fill="#6A53FF" fill-opacity="0.15"/>
<rect x="0.5" y="0.874573" width="51.0011" height="51" rx="15.5" stroke="#382999"/>
<path d="M15.7889 28.1366V26.9786C15.4004 26.9786 15.0277 26.9869 14.655 26.9764C14.2508 26.9651 13.9998 26.7149 14.0103 26.3534C14.0201 26.0191 14.2635 25.7846 14.6415 25.7733C15.015 25.7621 15.3892 25.7711 15.7844 25.7711V24.5741C15.3922 24.5741 15.0029 24.5778 14.613 24.5726C14.3424 24.5696 14.1426 24.4381 14.0471 24.1863C13.9622 23.9602 13.984 23.7212 14.1786 23.5679C14.3079 23.4665 14.4927 23.3996 14.658 23.3876C15.021 23.3613 15.3877 23.3793 15.7799 23.3793V22.1695C15.4222 22.1695 15.0691 22.1718 14.7167 22.1695C14.2681 22.1658 14.0171 21.9554 14.0118 21.5849C14.0066 21.2054 14.2718 20.9778 14.7249 20.9755C15.0713 20.974 15.4177 20.9755 15.7859 20.9755V19.78C15.4147 19.78 15.0443 19.786 14.6738 19.7785C14.2981 19.771 14.0516 19.5681 14.0163 19.2547C13.9727 18.8678 14.229 18.586 14.655 18.5739C15.0277 18.5634 15.4004 18.5717 15.8107 18.5717C15.7784 17.8699 15.81 17.2154 16.336 16.6954C16.8537 16.1837 17.4984 16.1521 18.1987 16.1852C18.1987 15.7802 18.192 15.4082 18.201 15.037C18.2108 14.6312 18.458 14.378 18.8179 14.3855C19.1636 14.3923 19.3958 14.6425 19.4055 15.0385C19.4146 15.4029 19.4078 15.7681 19.4078 16.1566H20.6041C20.6041 15.7726 20.5965 15.3834 20.6063 14.9942C20.6161 14.5974 20.9106 14.3442 21.2886 14.39C21.5787 14.4253 21.7845 14.6485 21.7936 14.9694C21.8041 15.3601 21.7958 15.7516 21.7958 16.1619H23.0094C23.0094 15.7644 23.0011 15.3744 23.0116 14.9852C23.0229 14.5846 23.3174 14.3389 23.6984 14.3915C23.9907 14.4321 24.1951 14.6741 24.2011 15.0077C24.2079 15.3894 24.2026 15.7711 24.2026 16.1671H25.3989C25.3989 15.7944 25.3936 15.4247 25.4004 15.055C25.4072 14.6771 25.6048 14.4298 25.9166 14.3915C26.3036 14.3434 26.5906 14.5982 26.6042 15.0227C26.6162 15.3962 26.6064 15.7704 26.6064 16.1626H27.8034C27.8034 15.7651 27.7997 15.3744 27.8049 14.9836C27.808 14.7252 27.9312 14.5313 28.1694 14.4314C28.3933 14.3382 28.6345 14.3502 28.7916 14.5388C28.9013 14.6703 28.9749 14.8649 28.9884 15.0378C29.0177 15.3999 28.9975 15.7666 28.9975 16.1566H30.2072C30.2072 15.7937 30.205 15.4405 30.2072 15.0866C30.211 14.6418 30.4252 14.3885 30.7964 14.3855C31.1743 14.3825 31.3998 14.6485 31.4013 15.1031C31.4028 15.4488 31.4013 15.7952 31.4013 16.1611H32.5968C32.5968 15.7854 32.5908 15.4142 32.5983 15.043C32.6065 14.6583 32.8245 14.4088 33.1536 14.387C33.5285 14.363 33.79 14.6155 33.8036 15.0325C33.8148 15.3879 33.8111 15.7441 33.8156 16.1003C33.8156 16.1168 33.8314 16.1326 33.8569 16.1822C34.5114 16.1506 35.1666 16.1844 35.6851 16.7119C36.1946 17.2304 36.2261 17.8759 36.1923 18.5717C36.6004 18.5717 36.9731 18.5642 37.345 18.5739C37.7403 18.5845 37.9882 18.8189 37.992 19.1668C37.9965 19.5268 37.7433 19.765 37.3345 19.7785C37.1474 19.7852 36.9595 19.78 36.7724 19.78C36.5951 19.78 36.4185 19.78 36.2194 19.78V20.9755C36.6004 20.9755 36.9806 20.971 37.3608 20.977C37.7132 20.983 37.9544 21.1882 37.9882 21.497C38.0296 21.8704 37.7914 22.153 37.4036 22.165C37.0129 22.177 36.6221 22.168 36.2141 22.168V23.3801C36.5801 23.3801 36.9332 23.3778 37.2857 23.3801C37.735 23.3838 37.9867 23.5927 37.992 23.9632C37.9973 24.3441 37.7335 24.5718 37.2804 24.5741C36.952 24.5763 36.6244 24.5756 36.296 24.5771C36.278 24.5771 36.2592 24.5846 36.2186 24.5936V25.7696C36.5883 25.7696 36.9588 25.7636 37.3292 25.7711C37.7057 25.7786 37.9522 25.98 37.9875 26.2933C38.0318 26.6803 37.7756 26.9628 37.3495 26.9756C36.9768 26.9869 36.6034 26.9779 36.2134 26.9779V28.1749C36.6176 28.1749 37.0091 28.1696 37.3999 28.1764C37.6704 28.1809 37.8688 28.3169 37.9589 28.5716C38.0386 28.7986 38.013 29.0383 37.8169 29.1878C37.6862 29.287 37.4998 29.3494 37.3345 29.3606C36.9723 29.3862 36.6071 29.3681 36.2201 29.3681V30.5794C36.6049 30.5794 36.9941 30.5727 37.3826 30.5817C37.7455 30.59 37.98 30.8154 37.992 31.1468C38.0048 31.5022 37.7583 31.7622 37.3811 31.7712C36.9986 31.7802 36.6154 31.7735 36.2149 31.7735V32.9697C36.5981 32.9697 36.9701 32.9622 37.342 32.972C37.7485 32.9825 38.0003 33.229 37.992 33.5896C37.9845 33.9345 37.7343 34.1667 37.3375 34.1758C36.9731 34.1848 36.6079 34.178 36.2021 34.178C36.305 35.8529 35.5393 36.6795 33.8051 36.5675C33.8051 36.9583 33.8103 37.328 33.8036 37.6977C33.796 38.0764 33.5977 38.3221 33.2851 38.3597C32.8981 38.407 32.6118 38.1508 32.599 37.7262C32.5878 37.3528 32.5968 36.9793 32.5968 36.5878H31.3998C31.3998 36.9876 31.4043 37.3783 31.3983 37.7691C31.3937 38.0396 31.2592 38.2387 31.006 38.3304C30.7798 38.4123 30.5401 38.3882 30.3891 38.1914C30.2892 38.0606 30.2253 37.8758 30.214 37.7097C30.1885 37.3468 30.2057 36.9816 30.2057 36.5931H28.9944C28.9944 36.9733 29.0012 37.3625 28.9922 37.751C28.9847 38.1042 28.7735 38.3356 28.4587 38.3619C28.0905 38.392 27.817 38.1433 27.8027 37.7563C27.7952 37.5594 27.8012 37.3625 27.8004 37.1657C27.8004 36.9793 27.8004 36.793 27.8004 36.5878H26.6049C26.6049 36.9673 26.6109 37.3392 26.6034 37.7104C26.5959 38.0599 26.4111 38.2996 26.1278 38.3544C25.7453 38.4288 25.4267 38.1808 25.4019 37.7691C25.3846 37.4798 25.3966 37.1882 25.3959 36.8974C25.3959 36.7975 25.3959 36.6975 25.3959 36.5833H24.1996C24.1996 36.9756 24.2071 37.3648 24.1974 37.7533C24.1876 38.141 23.9111 38.3897 23.5436 38.3612C23.2385 38.3371 23.0191 38.111 23.0101 37.7803C22.9988 37.3896 23.0079 36.9974 23.0079 36.5871H21.7936C21.7936 36.9838 21.8026 37.3738 21.7913 37.7631C21.78 38.1651 21.487 38.41 21.1053 38.3574C20.8129 38.3168 20.6086 38.0749 20.6026 37.742C20.5958 37.3603 20.601 36.9786 20.601 36.5826H19.4048C19.4048 36.9553 19.41 37.325 19.4033 37.6947C19.3965 38.0599 19.2094 38.3048 18.9141 38.3552C18.5196 38.422 18.2175 38.1606 18.198 37.7262C18.1897 37.5391 18.1957 37.3513 18.1957 37.1642C18.1957 36.9778 18.1957 36.7922 18.1957 36.5675C17.5022 36.5923 16.8447 36.5675 16.3239 36.0423C15.8115 35.5253 15.7739 34.8821 15.8092 34.1758C15.4087 34.1758 15.0375 34.1818 14.6671 34.1743C14.2928 34.166 14.0464 33.9601 14.0133 33.6468C13.972 33.2605 14.2297 32.9817 14.6573 32.9697C15.0292 32.96 15.402 32.9675 15.7897 32.9675V31.7712C15.4117 31.7712 15.0323 31.775 14.6528 31.7697C14.2989 31.7644 14.0539 31.5638 14.0148 31.2595C13.9675 30.8883 14.2057 30.5952 14.5882 30.5817C14.9797 30.5682 15.3711 30.5787 15.7844 30.5787V29.3651C15.3937 29.3651 15.0037 29.3727 14.6145 29.3629C14.2538 29.3539 14.0208 29.1247 14.0103 28.7926C13.9998 28.4386 14.2485 28.1832 14.6265 28.1726C15.0007 28.1621 15.3757 28.1629 15.7499 28.1584C15.7574 28.1584 15.7649 28.1493 15.7889 28.1336V28.1366ZM17.6059 26.3745C17.6059 28.9053 17.6059 31.4368 17.6059 33.9676C17.6059 34.5928 17.7825 34.7694 18.4076 34.7694C23.47 34.7694 28.5316 34.7694 33.5939 34.7694C34.2191 34.7694 34.3949 34.5928 34.3957 33.9669C34.3957 28.9045 34.3957 23.8429 34.3957 18.7806C34.3957 18.1547 34.2198 17.9796 33.5939 17.9796C28.5316 17.9796 23.47 17.9796 18.4076 17.9796C17.7817 17.9796 17.6066 18.1554 17.6066 18.7813C17.6066 21.3121 17.6066 23.8437 17.6066 26.3745H17.6059Z" fill="white"/>
<path d="M33.1874 19.1946V33.5588H18.8232V19.1946H33.1874ZM21.5163 25.179C22.1039 25.179 22.6735 25.1857 23.2431 25.1767C23.6315 25.1699 23.8915 24.925 23.8998 24.5868C23.9081 24.2397 23.6391 23.9797 23.2385 23.9737C22.6675 23.9647 22.0964 23.9617 21.5253 23.9737C20.8009 23.9902 20.3155 24.4824 20.308 25.2045C20.2997 25.9913 20.299 26.7772 20.308 27.564C20.3163 28.2448 20.7784 28.7415 21.4592 28.7715C22.0663 28.7978 22.6765 28.788 23.2844 28.7745C23.6421 28.7663 23.8795 28.5483 23.8938 28.2012C23.9148 27.6872 23.9156 27.171 23.8953 26.657C23.881 26.2926 23.6075 26.0679 23.2633 26.0852C22.932 26.1017 22.7095 26.3482 22.6983 26.7299C22.6893 27.0057 22.6968 27.2822 22.6968 27.5572H21.5163V25.179ZM29.3048 27.5565C29.3048 27.4114 29.3048 27.3002 29.3048 27.1883C29.3048 26.3354 29.31 25.4825 29.3018 24.6297C29.298 24.2412 29.0478 23.9812 28.7097 23.9744C28.3715 23.9684 28.104 24.2277 28.1003 24.6109C28.0905 25.6043 28.0822 26.5976 28.1025 27.591C28.116 28.2605 28.5924 28.7354 29.2605 28.7708C29.6903 28.7941 30.1238 28.7948 30.5529 28.7693C31.1894 28.7317 31.6733 28.2658 31.6845 27.6602C31.7041 26.63 31.6936 25.599 31.6913 24.5681C31.6913 24.2945 31.55 24.1044 31.2953 24.0128C30.8895 23.867 30.5063 24.154 30.5026 24.6154C30.495 25.4961 30.5003 26.3775 30.5003 27.2581C30.5003 27.3573 30.5003 27.4558 30.5003 27.555H29.3048V27.5565ZM25.704 26.9786C26.115 26.9786 26.4794 26.9869 26.8431 26.9764C27.2572 26.9651 27.4924 26.7389 27.5014 26.3301C27.5134 25.7598 27.5134 25.1887 27.5014 24.6176C27.4931 24.2186 27.2647 23.9834 26.8709 23.9744C26.2908 23.9609 25.7107 23.9617 25.1306 23.9744C24.7467 23.9827 24.5054 24.2096 24.5017 24.5883C24.4904 25.7763 24.4942 26.9651 24.5002 28.1531C24.5017 28.4289 24.6347 28.6393 24.9045 28.7347C25.3065 28.8775 25.6844 28.5972 25.701 28.1321C25.7145 27.7601 25.704 27.3874 25.704 26.9779V26.9786Z" fill="white"/>
<path d="M26.2788 25.7561H25.7228V25.2023H26.2788V25.7561Z" fill="white"/>
</svg>
