<svg width="136" height="27" viewBox="0 0 136 27" fill="none" xmlns="http://www.w3.org/2000/svg">
<path d="M14.6132 5.93669C14.2293 5.9895 13.8449 6.03756 13.4615 6.09565C11.0575 6.45951 8.88864 7.38738 6.93731 8.83068C5.93076 9.5753 5.0314 10.4308 4.24189 11.4046C4.08294 11.6006 4.04122 11.7627 4.13575 12.0098C4.79851 13.7436 5.69417 15.3421 6.85229 16.7934C7.74847 17.9166 8.78197 18.891 9.99131 19.6726C11.3142 20.5276 12.7549 21.0736 14.3106 21.3165C14.355 21.3234 14.4009 21.3229 14.4453 21.3303C14.553 21.3482 14.5921 21.3002 14.59 21.1967C14.5868 21.0435 14.59 20.8898 14.59 20.7362C14.59 20.2936 14.5879 19.8516 14.59 19.409C14.5911 19.2073 14.5974 19.2004 14.7865 19.2321C16.9754 19.5965 19.0387 19.1513 21.0333 18.2636C22.9377 17.4155 24.6339 16.2436 26.2293 14.916C27.4524 13.8978 28.5883 12.7883 29.6456 11.5984C29.6936 11.5446 29.7359 11.4849 29.7876 11.4353C29.8848 11.3428 29.8848 11.2605 29.7935 11.1596C29.5569 10.8992 29.3345 10.6252 29.0932 10.3696C26.9512 8.10137 24.4792 6.30689 21.5667 5.15141C19.43 4.30381 17.2125 3.93097 14.9143 4.05244C14.9053 4.05244 14.8963 4.05349 14.8873 4.05402C14.5662 4.07039 14.5916 4.0894 14.5916 3.77888C14.5916 2.81299 14.5916 1.84656 14.5916 0.88067C14.5916 0.826276 14.5921 0.77241 14.5916 0.718016C14.59 0.626126 14.6381 0.589159 14.7262 0.591272C14.7896 0.592856 14.8525 0.591272 14.9158 0.591272C22.8426 0.591272 30.7699 0.591272 38.6967 0.591272C38.7236 0.591272 38.7511 0.591272 38.778 0.591272C39.0194 0.594969 39.0183 0.594969 39.0183 0.832085C39.0162 3.84753 39.013 6.86298 39.013 9.87843C39.013 15.2777 39.0146 20.6765 39.0157 26.0758C39.0157 26.1302 39.013 26.184 39.0146 26.2384C39.0183 26.3446 38.9634 26.3821 38.8646 26.3778C38.8018 26.3752 38.7384 26.3778 38.675 26.3778C30.7572 26.3778 22.8389 26.3778 14.9211 26.3773C14.5678 26.3773 14.5911 26.4296 14.5911 26.0414C14.5911 25.2287 14.5911 24.4165 14.5921 23.6037C14.5921 23.3687 14.5958 23.3613 14.8356 23.3809C15.6921 23.4516 16.5471 23.4538 17.4053 23.3988C18.6231 23.3201 19.8298 23.1607 21.0291 22.9404C24.0916 22.378 27.0711 21.5257 29.9614 20.366C31.5721 19.7196 33.1358 18.976 34.6029 18.0413C35.0602 17.7498 35.5012 17.4366 35.922 17.0944C36.0752 16.9703 36.0768 16.9592 35.9215 16.8377C35.4858 16.4982 35.0021 16.233 34.5236 15.9611C33.7626 15.5286 32.998 15.1019 32.2359 14.6715C32.1419 14.6181 32.0506 14.5595 31.9592 14.5009C31.7444 14.3639 31.5367 14.3812 31.336 14.5526C29.832 15.8375 28.2857 17.068 26.6201 18.1405C24.617 19.4302 22.4888 20.4341 20.1593 20.9801C18.5856 21.3493 16.9913 21.4987 15.3769 21.4306C15.1878 21.4227 14.9993 21.3963 14.8102 21.3831C14.599 21.3688 14.5953 21.3709 14.5942 21.5764C14.5916 22.0548 14.5932 22.5333 14.5932 23.0117C14.5932 23.0566 14.5942 23.102 14.5932 23.1469C14.5879 23.3476 14.5874 23.355 14.373 23.3328C14.0857 23.3027 13.7989 23.2684 13.5143 23.2209C12.3889 23.0339 11.2936 22.7361 10.2374 22.3025C8.79094 21.7089 7.46172 20.9178 6.24762 19.9329C3.79723 17.9457 1.98585 15.4647 0.620189 12.6399C0.4475 12.2823 0.287486 11.919 0.144899 11.5478C0.0487853 11.2969 0.0456168 11.2948 0.247879 11.1105C1.19635 10.246 2.19815 9.4475 3.24537 8.70499C5.04777 7.42646 6.94788 6.32168 8.99585 5.482C10.6572 4.80022 12.3704 4.31068 14.1607 4.1195C14.6766 4.06405 14.5831 4.02181 14.5937 4.50819C14.6043 4.98612 14.5752 5.46457 14.6101 5.94198L14.6159 5.93669H14.6132Z" fill="#67666E"/>
<path d="M87.814 13.2466C87.814 10.6378 87.814 8.02842 87.814 5.4196C87.814 5.37472 87.8129 5.3293 87.814 5.28441C87.8188 5.08585 87.8188 5.08268 88.0289 5.08268C89.2837 5.08162 90.5385 5.07951 91.7932 5.08268C92.9846 5.08637 94.1765 5.06102 95.3679 5.09958C96.3972 5.13285 97.4217 5.21417 98.4277 5.45182C100.008 5.82518 101.31 6.61945 102.241 7.97191C102.754 8.71758 103.066 9.55251 103.277 10.426C103.608 11.789 103.68 13.171 103.57 14.5668C103.492 15.5697 103.316 16.5519 102.976 17.5009C102.302 19.3836 100.956 20.5312 99.0551 21.0508C98.0206 21.3334 96.9549 21.393 95.8881 21.3962C93.2614 21.4046 90.6341 21.4025 88.0073 21.4036C87.814 21.4036 87.8135 21.3988 87.8135 21.1549C87.8135 18.9342 87.8135 16.713 87.8135 14.4924C87.8135 14.0773 87.8135 13.6617 87.8135 13.2466H87.814ZM92.391 13.2614C92.391 13.9922 92.391 14.7231 92.391 15.4546C92.391 16.1944 92.391 16.9348 92.391 17.6747C92.391 17.9456 92.3726 17.9197 92.6392 17.9197C93.2978 17.9197 93.9569 17.9208 94.6154 17.9155C95.1588 17.9113 95.6948 17.8421 96.2187 17.6963C97.521 17.3335 98.4246 16.5372 98.8307 15.2322C99.1703 14.1422 99.1967 13.0263 98.9796 11.9126C98.629 10.1134 97.502 9.0487 95.6996 8.7498C94.6407 8.57394 93.5745 8.66636 92.512 8.63943C92.4153 8.63679 92.3837 8.67692 92.39 8.76775C92.3947 8.8306 92.3905 8.89397 92.3905 8.95734C92.3905 10.3922 92.3905 11.827 92.3905 13.2619L92.391 13.2614Z" fill="#86858C"/>
<path d="M44.1451 21.404C44.105 21.2894 44.1203 21.1986 44.1203 21.1094C44.1192 15.8653 44.1198 10.6208 44.1192 5.37676C44.1192 5.16552 44.2228 5.06007 44.4298 5.06043C47.2551 5.06359 50.0799 5.06359 52.9052 5.07204C54.0465 5.07574 55.1761 5.18981 56.274 5.51934C57.3133 5.83145 58.2343 6.34212 58.9588 7.16807C59.6422 7.94702 60.0367 8.86697 60.2669 9.86613C60.4692 10.7417 60.5273 11.6321 60.5284 12.5267C60.5315 15.3879 60.5299 18.2492 60.5284 21.111C60.5284 21.4183 60.5833 21.4051 60.2448 21.4051C58.9361 21.4051 57.627 21.4051 56.3183 21.4051C56.255 21.4051 56.1921 21.4035 56.1288 21.4051C56.0485 21.4072 56.0157 21.3666 56.0179 21.2894C56.0194 21.2171 56.0179 21.1453 56.0179 21.0729C56.0168 18.6991 56.0179 16.3253 56.0126 13.951C56.0105 13.1287 55.9677 12.3091 55.777 11.5043C55.7253 11.2851 55.6598 11.0697 55.5779 10.8595C55.1909 9.86455 54.4552 9.29737 53.4222 9.09246C53.0135 9.01114 52.5984 8.99318 52.1833 8.99213C51.1361 8.98896 50.0894 8.99107 49.0422 8.99107C48.747 8.99107 48.7723 8.96678 48.7723 9.2736C48.7723 13.1821 48.7723 17.0905 48.7723 20.9985C48.7723 21.2696 48.6329 21.4051 48.3541 21.4051C47.0454 21.4051 45.7363 21.4051 44.4277 21.4051H44.1451V21.404Z" fill="#86858C"/>
<path d="M131.318 21.3719C131.202 21.4152 131.111 21.3988 131.022 21.3988C129.577 21.3999 128.133 21.3999 126.689 21.3993C126.497 21.3993 126.372 21.3122 126.313 21.1379C126.043 20.3352 125.772 19.532 125.501 18.7293C125.414 18.47 125.435 18.5175 125.203 18.517C122.82 18.5159 120.436 18.5154 118.054 18.517C117.817 18.517 117.839 18.4642 117.739 18.7483C117.452 19.5647 117.16 20.379 116.878 21.1971C116.826 21.3465 116.759 21.4046 116.593 21.4041C115.212 21.3967 113.83 21.3999 112.45 21.3999C112.396 21.3999 112.341 21.4094 112.291 21.3756C112.275 21.29 112.326 21.2208 112.355 21.1474C114.432 15.8807 116.51 10.615 118.588 5.34881C118.605 5.30709 118.622 5.26537 118.636 5.22259C118.668 5.12859 118.72 5.06733 118.831 5.0837C118.875 5.09004 118.921 5.08476 118.966 5.08476C120.835 5.08476 122.704 5.08423 124.572 5.08528C124.903 5.08528 124.831 5.04779 124.951 5.35039C127.047 10.6097 129.14 15.8696 131.233 21.13C131.263 21.2039 131.286 21.2805 131.319 21.3729L131.318 21.3719ZM121.685 8.06535C120.715 10.6409 119.766 13.1583 118.811 15.6922H124.47C123.544 13.1546 122.624 10.6351 121.685 8.06535Z" fill="#86858C"/>
<path d="M61.2476 5.10695C61.3394 5.06628 61.4208 5.08265 61.5 5.08265C62.9803 5.0816 64.4605 5.0816 65.9408 5.08213C65.9767 5.08213 66.0137 5.08635 66.049 5.0816C66.171 5.06417 66.218 5.11751 66.2502 5.23686C66.3812 5.72429 66.527 6.2075 66.6653 6.69336C67.7152 10.3768 68.7645 14.0609 69.8144 17.7444C69.8339 17.812 69.8577 17.879 69.8809 17.9509C69.9712 17.8621 69.9765 17.747 70.0066 17.6461C71.2218 13.5692 72.4338 9.49175 73.6468 5.4143C73.6648 5.3541 73.6906 5.29442 73.6991 5.23263C73.716 5.10483 73.791 5.08054 73.9072 5.08054C75.3964 5.08477 76.8856 5.08529 78.3743 5.08741C78.3828 5.08741 78.3918 5.09269 78.4029 5.09638C78.4504 5.1793 78.3928 5.24953 78.3691 5.32188C77.0942 9.24724 75.8178 13.1726 74.5419 17.0974C74.0989 18.4605 73.6574 19.8235 73.2148 21.1865C73.1446 21.4025 73.1435 21.4041 72.9212 21.4041C70.8452 21.4046 68.7693 21.4046 66.6933 21.4041C66.4932 21.4041 66.4921 21.4025 66.4145 21.1628C65.7924 19.2325 65.1724 17.3018 64.5498 15.3721C63.4735 12.0351 62.3956 8.69908 61.3189 5.36202C61.2914 5.27752 61.2713 5.19091 61.2481 5.10695H61.2476Z" fill="#86858C"/>
<path d="M14.6073 5.94124C15.1307 5.94969 15.653 5.91061 16.1768 5.9386C17.3962 6.00356 18.5675 6.27976 19.6982 6.73287C21.404 7.41675 22.8943 8.43387 24.2356 9.67966C24.7521 10.1597 25.2364 10.6698 25.6821 11.2159C25.8284 11.3955 25.8279 11.4002 25.6868 11.5808C24.4236 13.1963 23.0046 14.6528 21.3279 15.8452C20.4259 16.4869 19.4664 17.0202 18.4044 17.3524C17.2219 17.7226 16.0316 17.7807 14.8312 17.4385C14.7631 17.419 14.696 17.3857 14.6184 17.4031C14.5667 17.505 14.592 17.6154 14.591 17.7216C14.5878 18.1366 14.591 18.5523 14.5883 18.9673C14.5867 19.1944 14.582 19.2002 14.3565 19.1543C13.3478 18.9494 12.3993 18.5871 11.5227 18.0463C9.89615 17.0424 8.71056 15.6366 7.82177 13.9631C7.52498 13.4043 7.27889 12.824 7.06606 12.2272C6.99424 12.0255 7.03332 11.9003 7.18541 11.7561C8.45497 10.5552 9.91041 9.65378 11.538 9.02535C12.4257 8.68261 13.3425 8.45077 14.2857 8.3272C14.5862 8.28812 14.5878 8.29393 14.5883 8.58702C14.5888 9.09241 14.5867 9.59833 14.5883 10.1037C14.5883 10.212 14.5883 10.297 14.4357 10.288C13.0204 10.2046 11.8638 10.8029 10.8135 11.6748C10.6123 11.8422 10.4232 12.0234 10.2447 12.2151C10.1771 12.2874 10.1475 12.3592 10.184 12.4585C10.861 14.3349 11.8903 15.9382 13.6694 16.96C13.8965 17.0905 14.1336 17.2019 14.3818 17.288C14.5709 17.3535 14.5851 17.3445 14.5878 17.1528C14.591 16.9363 14.5878 16.7198 14.5878 16.5027C14.5878 14.544 14.5873 12.5847 14.5873 10.626C14.5873 10.4025 14.6966 10.3092 14.9152 10.3461C15.6361 10.4686 16.3173 10.6889 16.8961 11.1583C17.3075 11.4916 17.6286 11.904 17.9227 12.3392C18.2766 12.863 18.5908 13.4112 18.9166 13.9525C18.9573 14.0206 18.9874 14.0988 19.055 14.1421C19.131 14.1321 19.1733 14.0814 19.2197 14.0418C20.2142 13.2047 21.2075 12.3672 22.2009 11.5285C22.3704 11.3854 22.3741 11.3786 22.2241 11.2138C20.7924 9.63847 19.0566 8.60709 16.9331 8.28653C16.2888 8.18936 15.6387 8.19359 14.9886 8.25538C14.5038 8.30132 14.5936 8.3198 14.5894 7.90894C14.5836 7.34018 14.5873 6.77142 14.5888 6.20265C14.5888 6.11341 14.5709 6.02204 14.611 5.93544L14.6052 5.94019L14.6073 5.94124Z" fill="#67666E"/>
<path d="M80.3858 13.2571C80.3858 10.6398 80.3858 8.02204 80.3863 5.40478C80.3863 5.02613 80.3456 5.08105 80.7227 5.08053C82.0493 5.07841 83.3764 5.07894 84.703 5.08053C85.023 5.08053 85.0014 5.02719 85.0014 5.38893C85.0019 9.93798 85.0024 14.487 85.0024 19.0361C85.0024 19.74 85.0029 20.444 85.0008 21.1479C84.9998 21.4072 85.0346 21.4051 84.7595 21.4051C83.3785 21.4046 81.9975 21.4051 80.6165 21.4046C80.3879 21.4046 80.3868 21.4025 80.3868 21.1643C80.3868 18.5286 80.3868 15.8934 80.3868 13.2576H80.3858V13.2571Z" fill="#86858C"/>
<path d="M110.378 13.2576C110.378 15.8749 110.378 18.4916 110.378 21.1089C110.378 21.4226 110.424 21.4041 110.094 21.4041C108.732 21.4041 107.369 21.4041 106.006 21.4041C105.759 21.4041 105.768 21.4268 105.768 21.1749C105.768 15.8865 105.768 10.5987 105.768 5.31027C105.768 5.07473 105.759 5.08107 105.982 5.08107C107.372 5.08213 108.762 5.08107 110.152 5.08213C110.377 5.08213 110.378 5.08477 110.378 5.32558C110.378 7.96977 110.378 10.614 110.378 13.2582V13.2576Z" fill="#86858C"/>
<path d="M133.693 19.0446C134.444 19.0435 135.033 19.4528 135.18 20.0733C135.451 21.2145 134.601 22.0357 133.525 21.9026C132.621 21.7907 132.105 21.054 132.27 20.1588C132.378 19.5764 132.892 19.1195 133.516 19.0546C133.587 19.0472 133.66 19.0461 133.692 19.0446H133.693ZM132.678 20.4921C132.685 21.1173 133.137 21.58 133.744 21.5831C134.346 21.5863 134.816 21.0931 134.811 20.4625C134.807 19.8393 134.33 19.3667 133.713 19.3757C133.115 19.3847 132.672 19.8621 132.678 20.4921Z" fill="#86858C"/>
<path d="M134.032 20.5866C134.162 20.8078 134.277 21.0059 134.397 21.2108C134.157 21.2562 133.988 21.1898 133.889 21.0117C133.824 20.8939 133.759 20.7761 133.691 20.6594C133.66 20.6061 133.61 20.5908 133.553 20.6072C133.497 20.623 133.501 20.6726 133.5 20.7165C133.5 20.8422 133.491 20.9689 133.502 21.0941C133.516 21.2451 133.427 21.2498 133.318 21.2493C133.219 21.2488 133.144 21.2419 133.146 21.1083C133.151 20.6858 133.148 20.2628 133.148 19.8404C133.148 19.7765 133.146 19.7015 133.235 19.7036C133.513 19.7099 133.794 19.6666 134.068 19.7405C134.35 19.8166 134.468 20.0484 134.382 20.323C134.332 20.483 134.198 20.5316 134.031 20.5866H134.032ZM133.738 20.3405C133.755 20.3389 133.818 20.3394 133.879 20.3283C133.975 20.3109 134.045 20.2602 134.047 20.1525C134.05 20.0416 133.978 19.9903 133.882 19.9787C133.785 19.9671 133.686 19.9718 133.588 19.9687C133.55 19.9676 133.52 19.9798 133.504 20.0167C133.431 20.182 133.522 20.3389 133.738 20.341V20.3405Z" fill="#86858C"/>
</svg>
