<svg width="50" height="53" viewBox="0 0 50 53" fill="none" xmlns="http://www.w3.org/2000/svg">
<rect x="0.5" y="0.874573" width="48.1458" height="51" rx="15.5" fill="#6A53FF" fill-opacity="0.15"/>
<rect x="0.5" y="0.874573" width="48.1458" height="51" rx="15.5" stroke="#382999"/>
<g clip-path="url(#clip0_28_1926)">
<path d="M35.1392 26.4079C35.1392 28.1306 35.127 29.8533 35.1458 31.575C35.1533 32.2085 34.909 32.6295 34.3573 32.9453C31.3565 34.6614 28.3622 36.3887 25.3764 38.1321C24.8088 38.4639 24.3182 38.4507 23.7562 38.1227C20.7704 36.3803 17.7762 34.6529 14.7754 32.9359C14.2415 32.6304 13.9981 32.2235 14 31.607C14.0122 28.1156 14.0113 24.6232 14.001 21.1318C13.9991 20.5369 14.2265 20.1328 14.7472 19.8349C17.7752 18.1019 20.7967 16.3595 23.8117 14.6048C24.3464 14.2937 24.8173 14.3013 25.3483 14.6105C28.35 16.3566 31.3584 18.0915 34.3723 19.8161C34.9061 20.1215 35.1505 20.5313 35.1449 21.1478C35.1279 22.9015 35.1392 24.6552 35.1392 26.4089V26.4079Z" fill="white"/>
</g>
<defs>
<clipPath id="clip0_28_1926">
<rect width="21.1458" height="24" fill="white" transform="translate(14 14.3746)"/>
</clipPath>
</defs>
</svg>
