<svg width="52" height="53" viewBox="0 0 52 53" fill="none" xmlns="http://www.w3.org/2000/svg">
<rect x="0.5" y="0.869995" width="51.0047" height="51" rx="15.5" fill="#6A53FF" fill-opacity="0.15"/>
<rect x="0.5" y="0.869995" width="51.0047" height="51" rx="15.5" stroke="#382999"/>
<g clip-path="url(#clip0_28_1916)">
<path d="M25.9799 38.37C19.3555 38.3625 13.9897 32.9714 14 26.3349C14.0103 19.7143 19.408 14.355 26.0492 14.37C32.6679 14.385 38.0234 19.7864 38.0047 26.4276C37.986 33.0229 32.5939 38.3775 25.9789 38.37H25.9799ZM25.9124 34.5822C26.9348 34.5822 26.9516 34.5663 26.9601 33.5421C26.9601 33.4484 26.9704 33.3537 26.9582 33.2609C26.8917 32.738 27.1222 32.485 27.6263 32.3145C29.1098 31.8113 30.0684 30.8001 30.2221 29.2024C30.3805 27.5456 29.6083 26.3424 28.1764 25.5627C27.6029 25.2506 26.9769 25.036 26.3884 24.7512C25.9696 24.5478 25.5347 24.3473 25.174 24.0615C24.5349 23.5564 24.6698 22.7308 25.4185 22.4103C25.6425 22.3147 25.8983 22.2697 26.1439 22.2529C26.9685 22.1976 27.7575 22.355 28.5128 22.6924C29.091 22.951 29.1829 22.9051 29.3684 22.2894C29.4771 21.9314 29.5596 21.565 29.6814 21.2117C29.8135 20.8294 29.6627 20.5951 29.3169 20.4827C28.7846 20.3103 28.2495 20.1172 27.7004 20.0291C27.2309 19.9542 27.0688 19.7527 27.0613 19.2982C27.0444 18.2627 27.2656 18.1484 25.8796 18.154C25.8637 18.154 25.8487 18.154 25.8327 18.154C25.0746 18.1596 24.9556 18.2224 25.0165 18.9833C25.0784 19.7583 24.8179 20.1247 24.071 20.4115C22.328 21.0815 21.5015 22.7936 21.9728 24.5056C22.269 25.5833 23.0561 26.2374 23.996 26.72C24.6333 27.047 25.3145 27.2841 25.963 27.5896C26.2985 27.748 26.6424 27.9242 26.9188 28.165C27.5964 28.7544 27.4652 29.7281 26.6405 30.0795C26.2394 30.25 25.7447 30.3737 25.3286 30.3044C24.4927 30.1648 23.6709 29.9089 22.864 29.6381C22.4817 29.5097 22.2746 29.5294 22.1649 29.9361C22.0506 30.3578 21.9232 30.7748 21.8032 31.1946C21.6973 31.5676 21.8126 31.845 22.1818 31.9827C22.6335 32.1505 23.0889 32.3135 23.549 32.456C23.9464 32.5787 24.4974 32.5487 24.7157 32.8083C24.935 33.0698 24.845 33.6058 24.8572 34.0219C24.8685 34.3911 25.0381 34.5701 25.397 34.5813C25.5685 34.5869 25.7409 34.5813 25.9124 34.5813V34.5822Z" fill="white"/>
</g>
<defs>
<clipPath id="clip0_28_1916">
<rect width="24.0047" height="24" fill="white" transform="translate(14 14.37)"/>
</clipPath>
</defs>
</svg>
