<svg width="24" height="24" viewBox="0 0 24 24" fill="none" xmlns="http://www.w3.org/2000/svg">
<path d="M11.625 22.5C17.6311 22.5 22.5 17.6311 22.5 11.625C22.5 5.6189 17.6311 0.75 11.625 0.75C5.6189 0.75 0.75 5.6189 0.75 11.625C0.75 17.6311 5.6189 22.5 11.625 22.5Z" fill="white"/>
<path d="M5.67322 11.5104C8.84351 10.1292 10.9575 9.21856 12.0153 8.7786C15.0354 7.52244 15.6629 7.30423 16.072 7.29694C16.1619 7.29544 16.3631 7.31773 16.4934 7.42346C16.6034 7.51273 16.6337 7.63333 16.6482 7.71797C16.6626 7.80261 16.6807 7.99542 16.6663 8.14608C16.5027 9.86567 15.7945 14.0387 15.4343 15.9647C15.2818 16.7796 14.9816 17.0529 14.691 17.0796C14.0595 17.1377 13.58 16.6622 12.9683 16.2613C12.0111 15.6339 11.4704 15.2433 10.5414 14.631C9.46764 13.9235 10.1637 13.5346 10.7756 12.8991C10.9357 12.7327 13.7183 10.2018 13.7721 9.9722C13.7789 9.94349 13.7851 9.83645 13.7215 9.77993C13.6579 9.72342 13.5641 9.74274 13.4964 9.75811C13.4004 9.7799 11.8713 10.7905 8.90921 12.79C8.4752 13.0881 8.08208 13.2333 7.72986 13.2257C7.34157 13.2173 6.59465 13.0061 6.03939 12.8256C5.35834 12.6042 4.81706 12.4872 4.86419 12.1112C4.88874 11.9154 5.15842 11.7151 5.67322 11.5104Z" fill="black"/>
</svg>
