<svg width="24" height="20" viewBox="0 0 24 20" fill="none" xmlns="http://www.w3.org/2000/svg">
<g clip-path="url(#clip0_1_349)">
<path d="M24 2.60078C23.1 3.00078 22.2 3.30078 21.2 3.40078C22.2 2.80078 23 1.80078 23.4 0.700781C22.4 1.30078 21.4 1.70078 20.3 1.90078C19.4 0.900781 18.1 0.300781 16.7 0.300781C14 0.300781 11.8 2.50078 11.8 5.20078C11.8 5.60078 11.8 6.00078 11.9 6.30078C7.7 6.10078 4.1 4.10078 1.7 1.10078C1.2 1.90078 1 2.70078 1 3.60078C1 5.30078 1.9 6.80078 3.2 7.70078C2.4 7.70078 1.6 7.50078 1 7.10078V7.20078C1 9.60078 2.7 11.6008 4.9 12.0008C4.5 12.1008 4.1 12.2008 3.6 12.2008C3.3 12.2008 3 12.2008 2.7 12.1008C3.3 14.1008 5.1 15.5008 7.3 15.5008C5.6 16.8008 3.5 17.6008 1.2 17.6008C0.8 17.6008 0.4 17.6008 0 17.5008C2.2 18.9008 4.8 19.7008 7.5 19.7008C16.6 19.7008 21.5 12.2008 21.5 5.70078V5.10078C22.5 4.40078 23.3 3.50078 24 2.60078Z" fill="white"/>
</g>
<defs>
<clipPath id="clip0_1_349">
<rect width="24" height="20" fill="white"/>
</clipPath>
</defs>
</svg>
